<?xml version="1.0" encoding="utf-8" standalone="no"?>
<!DOCTYPE svg PUBLIC "-//W3C//DTD SVG 1.1//EN"
  "http://www.w3.org/Graphics/SVG/1.1/DTD/svg11.dtd">
<svg height="720pt" version="1.1" viewBox="0 0 1080 720" width="1080pt" xmlns="http://www.w3.org/2000/svg" xmlns:xlink="http://www.w3.org/1999/xlink">
 <metadata>
  <rdf:RDF xmlns:cc="http://creativecommons.org/ns#" xmlns:dc="http://purl.org/dc/elements/1.1/" xmlns:rdf="http://www.w3.org/1999/02/22-rdf-syntax-ns#">
   <cc:Work>
    <dc:type rdf:resource="http://purl.org/dc/dcmitype/StillImage"/>
    <dc:date>2022-05-05T13:41:20.735469</dc:date>
    <dc:format>image/svg+xml</dc:format>
    <dc:creator>
     <cc:Agent>
      <dc:title>Matplotlib v3.4.3, https://matplotlib.org/</dc:title>
     </cc:Agent>
    </dc:creator>
   </cc:Work>
  </rdf:RDF>
 </metadata>
 <defs>
  <style type="text/css">*{stroke-linecap:butt;stroke-linejoin:round;}</style>
 </defs>
 <g id="figure_1">
  <g id="patch_1">
   <path d="M 0 720 
L 1080 720 
L 1080 0 
L 0 0 
z
" style="fill:none;"/>
  </g>
  <g id="axes_1">
   <g id="patch_2">
    <path d="M 135 630 
L 972 630 
L 972 86.4 
L 135 86.4 
z
" style="fill:#ffffff;"/>
   </g>
   <g id="patch_3">
    <path clip-path="url(#p5201491f00)" d="M 173.045455 630 
L 211.090909 630 
L 211.090909 567.246753 
L 173.045455 567.246753 
z
" style="fill:#808080;opacity:0.5;"/>
   </g>
   <g id="patch_4">
    <path clip-path="url(#p5201491f00)" d="M 211.090909 630 
L 249.136364 630 
L 249.136364 441.74026 
L 211.090909 441.74026 
z
" style="fill:#808080;opacity:0.5;"/>
   </g>
   <g id="patch_5">
    <path clip-path="url(#p5201491f00)" d="M 249.136364 630 
L 287.181818 630 
L 287.181818 473.116883 
L 249.136364 473.116883 
z
" style="fill:#808080;opacity:0.5;"/>
   </g>
   <g id="patch_6">
    <path clip-path="url(#p5201491f00)" d="M 287.181818 630 
L 325.227273 630 
L 325.227273 347.61039 
L 287.181818 347.61039 
z
" style="fill:#808080;opacity:0.5;"/>
   </g>
   <g id="patch_7">
    <path clip-path="url(#p5201491f00)" d="M 325.227273 630 
L 363.272727 630 
L 363.272727 331.922078 
L 325.227273 331.922078 
z
" style="fill:#808080;opacity:0.5;"/>
   </g>
   <g id="patch_8">
    <path clip-path="url(#p5201491f00)" d="M 363.272727 630 
L 401.318182 630 
L 401.318182 520.181818 
L 363.272727 520.181818 
z
" style="fill:#808080;opacity:0.5;"/>
   </g>
   <g id="patch_9">
    <path clip-path="url(#p5201491f00)" d="M 401.318182 630 
L 439.363636 630 
L 439.363636 426.051948 
L 401.318182 426.051948 
z
" style="fill:#808080;opacity:0.5;"/>
   </g>
   <g id="patch_10">
    <path clip-path="url(#p5201491f00)" d="M 439.363636 630 
L 477.409091 630 
L 477.409091 457.428571 
L 439.363636 457.428571 
z
" style="fill:#808080;opacity:0.5;"/>
   </g>
   <g id="patch_11">
    <path clip-path="url(#p5201491f00)" d="M 477.409091 630 
L 515.454545 630 
L 515.454545 551.558442 
L 477.409091 551.558442 
z
" style="fill:#808080;opacity:0.5;"/>
   </g>
   <g id="patch_12">
    <path clip-path="url(#p5201491f00)" d="M 515.454545 630 
L 553.5 630 
L 553.5 567.246753 
L 515.454545 567.246753 
z
" style="fill:#808080;opacity:0.5;"/>
   </g>
   <g id="patch_13">
    <path clip-path="url(#p5201491f00)" d="M 553.5 630 
L 591.545455 630 
L 591.545455 473.116883 
L 553.5 473.116883 
z
" style="fill:#808080;opacity:0.5;"/>
   </g>
   <g id="patch_14">
    <path clip-path="url(#p5201491f00)" d="M 591.545455 630 
L 629.590909 630 
L 629.590909 426.051948 
L 591.545455 426.051948 
z
" style="fill:#808080;opacity:0.5;"/>
   </g>
   <g id="patch_15">
    <path clip-path="url(#p5201491f00)" d="M 629.590909 630 
L 667.636364 630 
L 667.636364 175.038961 
L 629.590909 175.038961 
z
" style="fill:#808080;opacity:0.5;"/>
   </g>
   <g id="patch_16">
    <path clip-path="url(#p5201491f00)" d="M 667.636364 630 
L 705.681818 630 
L 705.681818 112.285714 
L 667.636364 112.285714 
z
" style="fill:#808080;opacity:0.5;"/>
   </g>
   <g id="patch_17">
    <path clip-path="url(#p5201491f00)" d="M 705.681818 630 
L 743.727273 630 
L 743.727273 237.792208 
L 705.681818 237.792208 
z
" style="fill:#808080;opacity:0.5;"/>
   </g>
   <g id="patch_18">
    <path clip-path="url(#p5201491f00)" d="M 743.727273 630 
L 781.772727 630 
L 781.772727 159.350649 
L 743.727273 159.350649 
z
" style="fill:#808080;opacity:0.5;"/>
   </g>
   <g id="patch_19">
    <path clip-path="url(#p5201491f00)" d="M 781.772727 630 
L 819.818182 630 
L 819.818182 410.363636 
L 781.772727 410.363636 
z
" style="fill:#808080;opacity:0.5;"/>
   </g>
   <g id="patch_20">
    <path clip-path="url(#p5201491f00)" d="M 819.818182 630 
L 857.863636 630 
L 857.863636 488.805195 
L 819.818182 488.805195 
z
" style="fill:#808080;opacity:0.5;"/>
   </g>
   <g id="patch_21">
    <path clip-path="url(#p5201491f00)" d="M 857.863636 630 
L 895.909091 630 
L 895.909091 567.246753 
L 857.863636 567.246753 
z
" style="fill:#808080;opacity:0.5;"/>
   </g>
   <g id="patch_22">
    <path clip-path="url(#p5201491f00)" d="M 895.909091 630 
L 933.954545 630 
L 933.954545 598.623377 
L 895.909091 598.623377 
z
" style="fill:#808080;opacity:0.5;"/>
   </g>
   <g id="matplotlib.axis_1">
    <g id="xtick_1">
     <g id="line2d_1">
      <defs>
       <path d="M 0 0 
L 0 3.5 
" id="m901d3280b1" style="stroke:#000000;stroke-width:0.8;"/>
      </defs>
      <g>
       <use style="stroke:#000000;stroke-width:0.8;" x="273.542882" xlink:href="#m901d3280b1" y="630"/>
      </g>
     </g>
     <g id="text_1">
      <!-- 50 -->
      <g transform="translate(267.180382 644.598438)scale(0.1 -0.1)">
       <defs>
        <path d="M 691 4666 
L 3169 4666 
L 3169 4134 
L 1269 4134 
L 1269 2991 
Q 1406 3038 1543 3061 
Q 1681 3084 1819 3084 
Q 2600 3084 3056 2656 
Q 3513 2228 3513 1497 
Q 3513 744 3044 326 
Q 2575 -91 1722 -91 
Q 1428 -91 1123 -41 
Q 819 9 494 109 
L 494 744 
Q 775 591 1075 516 
Q 1375 441 1709 441 
Q 2250 441 2565 725 
Q 2881 1009 2881 1497 
Q 2881 1984 2565 2268 
Q 2250 2553 1709 2553 
Q 1456 2553 1204 2497 
Q 953 2441 691 2322 
L 691 4666 
z
" id="DejaVuSans-35" transform="scale(0.015625)"/>
        <path d="M 2034 4250 
Q 1547 4250 1301 3770 
Q 1056 3291 1056 2328 
Q 1056 1369 1301 889 
Q 1547 409 2034 409 
Q 2525 409 2770 889 
Q 3016 1369 3016 2328 
Q 3016 3291 2770 3770 
Q 2525 4250 2034 4250 
z
M 2034 4750 
Q 2819 4750 3233 4129 
Q 3647 3509 3647 2328 
Q 3647 1150 3233 529 
Q 2819 -91 2034 -91 
Q 1250 -91 836 529 
Q 422 1150 422 2328 
Q 422 3509 836 4129 
Q 1250 4750 2034 4750 
z
" id="DejaVuSans-30" transform="scale(0.015625)"/>
       </defs>
       <use xlink:href="#DejaVuSans-35"/>
       <use x="63.623047" xlink:href="#DejaVuSans-30"/>
      </g>
     </g>
    </g>
    <g id="xtick_2">
     <g id="line2d_2">
      <g>
       <use style="stroke:#000000;stroke-width:0.8;" x="417.110635" xlink:href="#m901d3280b1" y="630"/>
      </g>
     </g>
     <g id="text_2">
      <!-- 60 -->
      <g transform="translate(410.748135 644.598438)scale(0.1 -0.1)">
       <defs>
        <path d="M 2113 2584 
Q 1688 2584 1439 2293 
Q 1191 2003 1191 1497 
Q 1191 994 1439 701 
Q 1688 409 2113 409 
Q 2538 409 2786 701 
Q 3034 994 3034 1497 
Q 3034 2003 2786 2293 
Q 2538 2584 2113 2584 
z
M 3366 4563 
L 3366 3988 
Q 3128 4100 2886 4159 
Q 2644 4219 2406 4219 
Q 1781 4219 1451 3797 
Q 1122 3375 1075 2522 
Q 1259 2794 1537 2939 
Q 1816 3084 2150 3084 
Q 2853 3084 3261 2657 
Q 3669 2231 3669 1497 
Q 3669 778 3244 343 
Q 2819 -91 2113 -91 
Q 1303 -91 875 529 
Q 447 1150 447 2328 
Q 447 3434 972 4092 
Q 1497 4750 2381 4750 
Q 2619 4750 2861 4703 
Q 3103 4656 3366 4563 
z
" id="DejaVuSans-36" transform="scale(0.015625)"/>
       </defs>
       <use xlink:href="#DejaVuSans-36"/>
       <use x="63.623047" xlink:href="#DejaVuSans-30"/>
      </g>
     </g>
    </g>
    <g id="xtick_3">
     <g id="line2d_3">
      <g>
       <use style="stroke:#000000;stroke-width:0.8;" x="560.678388" xlink:href="#m901d3280b1" y="630"/>
      </g>
     </g>
     <g id="text_3">
      <!-- 70 -->
      <g transform="translate(554.315888 644.598438)scale(0.1 -0.1)">
       <defs>
        <path d="M 525 4666 
L 3525 4666 
L 3525 4397 
L 1831 0 
L 1172 0 
L 2766 4134 
L 525 4134 
L 525 4666 
z
" id="DejaVuSans-37" transform="scale(0.015625)"/>
       </defs>
       <use xlink:href="#DejaVuSans-37"/>
       <use x="63.623047" xlink:href="#DejaVuSans-30"/>
      </g>
     </g>
    </g>
    <g id="xtick_4">
     <g id="line2d_4">
      <g>
       <use style="stroke:#000000;stroke-width:0.8;" x="704.246141" xlink:href="#m901d3280b1" y="630"/>
      </g>
     </g>
     <g id="text_4">
      <!-- 80 -->
      <g transform="translate(697.883641 644.598438)scale(0.1 -0.1)">
       <defs>
        <path d="M 2034 2216 
Q 1584 2216 1326 1975 
Q 1069 1734 1069 1313 
Q 1069 891 1326 650 
Q 1584 409 2034 409 
Q 2484 409 2743 651 
Q 3003 894 3003 1313 
Q 3003 1734 2745 1975 
Q 2488 2216 2034 2216 
z
M 1403 2484 
Q 997 2584 770 2862 
Q 544 3141 544 3541 
Q 544 4100 942 4425 
Q 1341 4750 2034 4750 
Q 2731 4750 3128 4425 
Q 3525 4100 3525 3541 
Q 3525 3141 3298 2862 
Q 3072 2584 2669 2484 
Q 3125 2378 3379 2068 
Q 3634 1759 3634 1313 
Q 3634 634 3220 271 
Q 2806 -91 2034 -91 
Q 1263 -91 848 271 
Q 434 634 434 1313 
Q 434 1759 690 2068 
Q 947 2378 1403 2484 
z
M 1172 3481 
Q 1172 3119 1398 2916 
Q 1625 2713 2034 2713 
Q 2441 2713 2670 2916 
Q 2900 3119 2900 3481 
Q 2900 3844 2670 4047 
Q 2441 4250 2034 4250 
Q 1625 4250 1398 4047 
Q 1172 3844 1172 3481 
z
" id="DejaVuSans-38" transform="scale(0.015625)"/>
       </defs>
       <use xlink:href="#DejaVuSans-38"/>
       <use x="63.623047" xlink:href="#DejaVuSans-30"/>
      </g>
     </g>
    </g>
    <g id="xtick_5">
     <g id="line2d_5">
      <g>
       <use style="stroke:#000000;stroke-width:0.8;" x="847.813894" xlink:href="#m901d3280b1" y="630"/>
      </g>
     </g>
     <g id="text_5">
      <!-- 90 -->
      <g transform="translate(841.451394 644.598438)scale(0.1 -0.1)">
       <defs>
        <path d="M 703 97 
L 703 672 
Q 941 559 1184 500 
Q 1428 441 1663 441 
Q 2288 441 2617 861 
Q 2947 1281 2994 2138 
Q 2813 1869 2534 1725 
Q 2256 1581 1919 1581 
Q 1219 1581 811 2004 
Q 403 2428 403 3163 
Q 403 3881 828 4315 
Q 1253 4750 1959 4750 
Q 2769 4750 3195 4129 
Q 3622 3509 3622 2328 
Q 3622 1225 3098 567 
Q 2575 -91 1691 -91 
Q 1453 -91 1209 -44 
Q 966 3 703 97 
z
M 1959 2075 
Q 2384 2075 2632 2365 
Q 2881 2656 2881 3163 
Q 2881 3666 2632 3958 
Q 2384 4250 1959 4250 
Q 1534 4250 1286 3958 
Q 1038 3666 1038 3163 
Q 1038 2656 1286 2365 
Q 1534 2075 1959 2075 
z
" id="DejaVuSans-39" transform="scale(0.015625)"/>
       </defs>
       <use xlink:href="#DejaVuSans-39"/>
       <use x="63.623047" xlink:href="#DejaVuSans-30"/>
      </g>
     </g>
    </g>
    <g id="text_6">
     <!-- Time (min) -->
     <g transform="translate(526.347656 658.276562)scale(0.1 -0.1)">
      <defs>
       <path d="M -19 4666 
L 3928 4666 
L 3928 4134 
L 2272 4134 
L 2272 0 
L 1638 0 
L 1638 4134 
L -19 4134 
L -19 4666 
z
" id="DejaVuSans-54" transform="scale(0.015625)"/>
       <path d="M 603 3500 
L 1178 3500 
L 1178 0 
L 603 0 
L 603 3500 
z
M 603 4863 
L 1178 4863 
L 1178 4134 
L 603 4134 
L 603 4863 
z
" id="DejaVuSans-69" transform="scale(0.015625)"/>
       <path d="M 3328 2828 
Q 3544 3216 3844 3400 
Q 4144 3584 4550 3584 
Q 5097 3584 5394 3201 
Q 5691 2819 5691 2113 
L 5691 0 
L 5113 0 
L 5113 2094 
Q 5113 2597 4934 2840 
Q 4756 3084 4391 3084 
Q 3944 3084 3684 2787 
Q 3425 2491 3425 1978 
L 3425 0 
L 2847 0 
L 2847 2094 
Q 2847 2600 2669 2842 
Q 2491 3084 2119 3084 
Q 1678 3084 1418 2786 
Q 1159 2488 1159 1978 
L 1159 0 
L 581 0 
L 581 3500 
L 1159 3500 
L 1159 2956 
Q 1356 3278 1631 3431 
Q 1906 3584 2284 3584 
Q 2666 3584 2933 3390 
Q 3200 3197 3328 2828 
z
" id="DejaVuSans-6d" transform="scale(0.015625)"/>
       <path d="M 3597 1894 
L 3597 1613 
L 953 1613 
Q 991 1019 1311 708 
Q 1631 397 2203 397 
Q 2534 397 2845 478 
Q 3156 559 3463 722 
L 3463 178 
Q 3153 47 2828 -22 
Q 2503 -91 2169 -91 
Q 1331 -91 842 396 
Q 353 884 353 1716 
Q 353 2575 817 3079 
Q 1281 3584 2069 3584 
Q 2775 3584 3186 3129 
Q 3597 2675 3597 1894 
z
M 3022 2063 
Q 3016 2534 2758 2815 
Q 2500 3097 2075 3097 
Q 1594 3097 1305 2825 
Q 1016 2553 972 2059 
L 3022 2063 
z
" id="DejaVuSans-65" transform="scale(0.015625)"/>
       <path id="DejaVuSans-20" transform="scale(0.015625)"/>
       <path d="M 1984 4856 
Q 1566 4138 1362 3434 
Q 1159 2731 1159 2009 
Q 1159 1288 1364 580 
Q 1569 -128 1984 -844 
L 1484 -844 
Q 1016 -109 783 600 
Q 550 1309 550 2009 
Q 550 2706 781 3412 
Q 1013 4119 1484 4856 
L 1984 4856 
z
" id="DejaVuSans-28" transform="scale(0.015625)"/>
       <path d="M 3513 2113 
L 3513 0 
L 2938 0 
L 2938 2094 
Q 2938 2591 2744 2837 
Q 2550 3084 2163 3084 
Q 1697 3084 1428 2787 
Q 1159 2491 1159 1978 
L 1159 0 
L 581 0 
L 581 3500 
L 1159 3500 
L 1159 2956 
Q 1366 3272 1645 3428 
Q 1925 3584 2291 3584 
Q 2894 3584 3203 3211 
Q 3513 2838 3513 2113 
z
" id="DejaVuSans-6e" transform="scale(0.015625)"/>
       <path d="M 513 4856 
L 1013 4856 
Q 1481 4119 1714 3412 
Q 1947 2706 1947 2009 
Q 1947 1309 1714 600 
Q 1481 -109 1013 -844 
L 513 -844 
Q 928 -128 1133 580 
Q 1338 1288 1338 2009 
Q 1338 2731 1133 3434 
Q 928 4138 513 4856 
z
" id="DejaVuSans-29" transform="scale(0.015625)"/>
      </defs>
      <use xlink:href="#DejaVuSans-54"/>
      <use x="57.958984" xlink:href="#DejaVuSans-69"/>
      <use x="85.742188" xlink:href="#DejaVuSans-6d"/>
      <use x="183.154297" xlink:href="#DejaVuSans-65"/>
      <use x="244.677734" xlink:href="#DejaVuSans-20"/>
      <use x="276.464844" xlink:href="#DejaVuSans-28"/>
      <use x="315.478516" xlink:href="#DejaVuSans-6d"/>
      <use x="412.890625" xlink:href="#DejaVuSans-69"/>
      <use x="440.673828" xlink:href="#DejaVuSans-6e"/>
      <use x="504.052734" xlink:href="#DejaVuSans-29"/>
     </g>
    </g>
   </g>
   <g id="matplotlib.axis_2">
    <g id="ytick_1">
     <g id="line2d_6">
      <defs>
       <path d="M 0 0 
L -3.5 0 
" id="m3f6321289c" style="stroke:#000000;stroke-width:0.8;"/>
      </defs>
      <g>
       <use style="stroke:#000000;stroke-width:0.8;" x="135" xlink:href="#m3f6321289c" y="630"/>
      </g>
     </g>
     <g id="text_7">
      <!-- 0.00 -->
      <g transform="translate(105.734375 633.799219)scale(0.1 -0.1)">
       <defs>
        <path d="M 684 794 
L 1344 794 
L 1344 0 
L 684 0 
L 684 794 
z
" id="DejaVuSans-2e" transform="scale(0.015625)"/>
       </defs>
       <use xlink:href="#DejaVuSans-30"/>
       <use x="63.623047" xlink:href="#DejaVuSans-2e"/>
       <use x="95.410156" xlink:href="#DejaVuSans-30"/>
       <use x="159.033203" xlink:href="#DejaVuSans-30"/>
      </g>
     </g>
    </g>
    <g id="ytick_2">
     <g id="line2d_7">
      <g>
       <use style="stroke:#000000;stroke-width:0.8;" x="135" xlink:href="#m3f6321289c" y="516.918649"/>
      </g>
     </g>
     <g id="text_8">
      <!-- 0.01 -->
      <g transform="translate(105.734375 520.717868)scale(0.1 -0.1)">
       <defs>
        <path d="M 794 531 
L 1825 531 
L 1825 4091 
L 703 3866 
L 703 4441 
L 1819 4666 
L 2450 4666 
L 2450 531 
L 3481 531 
L 3481 0 
L 794 0 
L 794 531 
z
" id="DejaVuSans-31" transform="scale(0.015625)"/>
       </defs>
       <use xlink:href="#DejaVuSans-30"/>
       <use x="63.623047" xlink:href="#DejaVuSans-2e"/>
       <use x="95.410156" xlink:href="#DejaVuSans-30"/>
       <use x="159.033203" xlink:href="#DejaVuSans-31"/>
      </g>
     </g>
    </g>
    <g id="ytick_3">
     <g id="line2d_8">
      <g>
       <use style="stroke:#000000;stroke-width:0.8;" x="135" xlink:href="#m3f6321289c" y="403.837299"/>
      </g>
     </g>
     <g id="text_9">
      <!-- 0.02 -->
      <g transform="translate(105.734375 407.636517)scale(0.1 -0.1)">
       <defs>
        <path d="M 1228 531 
L 3431 531 
L 3431 0 
L 469 0 
L 469 531 
Q 828 903 1448 1529 
Q 2069 2156 2228 2338 
Q 2531 2678 2651 2914 
Q 2772 3150 2772 3378 
Q 2772 3750 2511 3984 
Q 2250 4219 1831 4219 
Q 1534 4219 1204 4116 
Q 875 4013 500 3803 
L 500 4441 
Q 881 4594 1212 4672 
Q 1544 4750 1819 4750 
Q 2544 4750 2975 4387 
Q 3406 4025 3406 3419 
Q 3406 3131 3298 2873 
Q 3191 2616 2906 2266 
Q 2828 2175 2409 1742 
Q 1991 1309 1228 531 
z
" id="DejaVuSans-32" transform="scale(0.015625)"/>
       </defs>
       <use xlink:href="#DejaVuSans-30"/>
       <use x="63.623047" xlink:href="#DejaVuSans-2e"/>
       <use x="95.410156" xlink:href="#DejaVuSans-30"/>
       <use x="159.033203" xlink:href="#DejaVuSans-32"/>
      </g>
     </g>
    </g>
    <g id="ytick_4">
     <g id="line2d_9">
      <g>
       <use style="stroke:#000000;stroke-width:0.8;" x="135" xlink:href="#m3f6321289c" y="290.755948"/>
      </g>
     </g>
     <g id="text_10">
      <!-- 0.03 -->
      <g transform="translate(105.734375 294.555167)scale(0.1 -0.1)">
       <defs>
        <path d="M 2597 2516 
Q 3050 2419 3304 2112 
Q 3559 1806 3559 1356 
Q 3559 666 3084 287 
Q 2609 -91 1734 -91 
Q 1441 -91 1130 -33 
Q 819 25 488 141 
L 488 750 
Q 750 597 1062 519 
Q 1375 441 1716 441 
Q 2309 441 2620 675 
Q 2931 909 2931 1356 
Q 2931 1769 2642 2001 
Q 2353 2234 1838 2234 
L 1294 2234 
L 1294 2753 
L 1863 2753 
Q 2328 2753 2575 2939 
Q 2822 3125 2822 3475 
Q 2822 3834 2567 4026 
Q 2313 4219 1838 4219 
Q 1578 4219 1281 4162 
Q 984 4106 628 3988 
L 628 4550 
Q 988 4650 1302 4700 
Q 1616 4750 1894 4750 
Q 2613 4750 3031 4423 
Q 3450 4097 3450 3541 
Q 3450 3153 3228 2886 
Q 3006 2619 2597 2516 
z
" id="DejaVuSans-33" transform="scale(0.015625)"/>
       </defs>
       <use xlink:href="#DejaVuSans-30"/>
       <use x="63.623047" xlink:href="#DejaVuSans-2e"/>
       <use x="95.410156" xlink:href="#DejaVuSans-30"/>
       <use x="159.033203" xlink:href="#DejaVuSans-33"/>
      </g>
     </g>
    </g>
    <g id="ytick_5">
     <g id="line2d_10">
      <g>
       <use style="stroke:#000000;stroke-width:0.8;" x="135" xlink:href="#m3f6321289c" y="177.674597"/>
      </g>
     </g>
     <g id="text_11">
      <!-- 0.04 -->
      <g transform="translate(105.734375 181.473816)scale(0.1 -0.1)">
       <defs>
        <path d="M 2419 4116 
L 825 1625 
L 2419 1625 
L 2419 4116 
z
M 2253 4666 
L 3047 4666 
L 3047 1625 
L 3713 1625 
L 3713 1100 
L 3047 1100 
L 3047 0 
L 2419 0 
L 2419 1100 
L 313 1100 
L 313 1709 
L 2253 4666 
z
" id="DejaVuSans-34" transform="scale(0.015625)"/>
       </defs>
       <use xlink:href="#DejaVuSans-30"/>
       <use x="63.623047" xlink:href="#DejaVuSans-2e"/>
       <use x="95.410156" xlink:href="#DejaVuSans-30"/>
       <use x="159.033203" xlink:href="#DejaVuSans-34"/>
      </g>
     </g>
    </g>
    <g id="text_12">
     <!-- Frequency -->
     <g transform="translate(99.654687 384.029687)rotate(-90)scale(0.1 -0.1)">
      <defs>
       <path d="M 628 4666 
L 3309 4666 
L 3309 4134 
L 1259 4134 
L 1259 2759 
L 3109 2759 
L 3109 2228 
L 1259 2228 
L 1259 0 
L 628 0 
L 628 4666 
z
" id="DejaVuSans-46" transform="scale(0.015625)"/>
       <path d="M 2631 2963 
Q 2534 3019 2420 3045 
Q 2306 3072 2169 3072 
Q 1681 3072 1420 2755 
Q 1159 2438 1159 1844 
L 1159 0 
L 581 0 
L 581 3500 
L 1159 3500 
L 1159 2956 
Q 1341 3275 1631 3429 
Q 1922 3584 2338 3584 
Q 2397 3584 2469 3576 
Q 2541 3569 2628 3553 
L 2631 2963 
z
" id="DejaVuSans-72" transform="scale(0.015625)"/>
       <path d="M 947 1747 
Q 947 1113 1208 752 
Q 1469 391 1925 391 
Q 2381 391 2643 752 
Q 2906 1113 2906 1747 
Q 2906 2381 2643 2742 
Q 2381 3103 1925 3103 
Q 1469 3103 1208 2742 
Q 947 2381 947 1747 
z
M 2906 525 
Q 2725 213 2448 61 
Q 2172 -91 1784 -91 
Q 1150 -91 751 415 
Q 353 922 353 1747 
Q 353 2572 751 3078 
Q 1150 3584 1784 3584 
Q 2172 3584 2448 3432 
Q 2725 3281 2906 2969 
L 2906 3500 
L 3481 3500 
L 3481 -1331 
L 2906 -1331 
L 2906 525 
z
" id="DejaVuSans-71" transform="scale(0.015625)"/>
       <path d="M 544 1381 
L 544 3500 
L 1119 3500 
L 1119 1403 
Q 1119 906 1312 657 
Q 1506 409 1894 409 
Q 2359 409 2629 706 
Q 2900 1003 2900 1516 
L 2900 3500 
L 3475 3500 
L 3475 0 
L 2900 0 
L 2900 538 
Q 2691 219 2414 64 
Q 2138 -91 1772 -91 
Q 1169 -91 856 284 
Q 544 659 544 1381 
z
M 1991 3584 
L 1991 3584 
z
" id="DejaVuSans-75" transform="scale(0.015625)"/>
       <path d="M 3122 3366 
L 3122 2828 
Q 2878 2963 2633 3030 
Q 2388 3097 2138 3097 
Q 1578 3097 1268 2742 
Q 959 2388 959 1747 
Q 959 1106 1268 751 
Q 1578 397 2138 397 
Q 2388 397 2633 464 
Q 2878 531 3122 666 
L 3122 134 
Q 2881 22 2623 -34 
Q 2366 -91 2075 -91 
Q 1284 -91 818 406 
Q 353 903 353 1747 
Q 353 2603 823 3093 
Q 1294 3584 2113 3584 
Q 2378 3584 2631 3529 
Q 2884 3475 3122 3366 
z
" id="DejaVuSans-63" transform="scale(0.015625)"/>
       <path d="M 2059 -325 
Q 1816 -950 1584 -1140 
Q 1353 -1331 966 -1331 
L 506 -1331 
L 506 -850 
L 844 -850 
Q 1081 -850 1212 -737 
Q 1344 -625 1503 -206 
L 1606 56 
L 191 3500 
L 800 3500 
L 1894 763 
L 2988 3500 
L 3597 3500 
L 2059 -325 
z
" id="DejaVuSans-79" transform="scale(0.015625)"/>
      </defs>
      <use xlink:href="#DejaVuSans-46"/>
      <use x="50.269531" xlink:href="#DejaVuSans-72"/>
      <use x="89.132812" xlink:href="#DejaVuSans-65"/>
      <use x="150.65625" xlink:href="#DejaVuSans-71"/>
      <use x="214.132812" xlink:href="#DejaVuSans-75"/>
      <use x="277.511719" xlink:href="#DejaVuSans-65"/>
      <use x="339.035156" xlink:href="#DejaVuSans-6e"/>
      <use x="402.414062" xlink:href="#DejaVuSans-63"/>
      <use x="457.394531" xlink:href="#DejaVuSans-79"/>
     </g>
    </g>
   </g>
   <g id="line2d_11">
    <path clip-path="url(#p5201491f00)" d="M 173.045455 590.269288 
L 180.731405 582.751729 
L 188.417355 574.265876 
L 196.103306 564.787308 
L 203.789256 554.31344 
L 211.475207 542.867314 
L 219.161157 530.500905 
L 226.847107 517.297682 
L 234.533058 503.374183 
L 242.219008 488.880392 
L 249.904959 473.998723 
L 257.590909 458.941507 
L 265.27686 443.94694 
L 272.96281 429.273511 
L 280.64876 415.193089 
L 288.334711 401.982855 
L 296.020661 389.916426 
L 303.706612 379.254536 
L 311.392562 370.23573 
L 319.078512 363.067512 
L 326.764463 357.918416 
L 334.450413 354.911426 
L 342.136364 354.119091 
L 349.822314 355.560615 
L 357.508264 359.201087 
L 365.194215 364.95288 
L 372.880165 372.679164 
L 380.566116 382.199311 
L 388.252066 393.295913 
L 395.938017 405.723022 
L 403.623967 419.215182 
L 411.309917 433.496789 
L 418.995868 448.291323 
L 426.681818 463.330024 
L 434.367769 478.359652 
L 442.053719 493.149035 
L 449.739669 507.494201 
L 457.42562 521.221987 
L 465.11157 534.192107 
L 472.797521 546.297747 
L 480.483471 557.46482 
L 488.169421 567.650075 
L 495.855372 576.838299 
L 503.541322 585.038841 
L 511.227273 592.281726 
L 518.913223 598.613577 
L 526.599174 604.093573 
L 534.285124 608.789597 
L 541.971074 612.774731 
L 549.657025 616.124176 
L 557.342975 618.912663 
L 565.028926 621.212377 
L 572.714876 623.091381 
L 580.400826 624.612506 
L 588.086777 625.832669 
L 595.772727 626.802541 
L 603.458678 627.566521 
L 611.144628 628.162929 
L 618.830579 628.624375 
L 626.516529 628.978238 
L 634.202479 629.247208 
L 641.88843 629.449856 
L 649.57438 629.601202 
L 657.260331 629.713249 
L 664.946281 629.795481 
L 672.632231 629.85531 
L 680.318182 629.898465 
L 688.004132 629.929324 
L 695.690083 629.951202 
L 703.376033 629.96658 
L 711.061983 629.977297 
L 718.747934 629.984701 
L 726.433884 629.989775 
L 734.119835 629.993221 
L 741.805785 629.995542 
L 749.491736 629.997092 
L 757.177686 629.998118 
L 764.863636 629.998792 
L 772.549587 629.999231 
L 780.235537 629.999514 
L 787.921488 629.999696 
L 795.607438 629.999811 
L 803.293388 629.999884 
L 810.979339 629.999929 
L 818.665289 629.999957 
L 826.35124 629.999974 
L 834.03719 629.999985 
L 841.72314 629.999991 
L 849.409091 629.999995 
L 857.095041 629.999997 
L 864.780992 629.999998 
L 872.466942 629.999999 
L 880.152893 629.999999 
L 887.838843 630 
L 895.524793 630 
L 903.210744 630 
L 910.896694 630 
L 918.582645 630 
L 926.268595 630 
L 933.954545 630 
" style="fill:none;stroke:#0000ff;stroke-linecap:square;stroke-width:1.5;"/>
   </g>
   <g id="line2d_12">
    <path clip-path="url(#p5201491f00)" d="M 173.045455 629.999999 
L 180.731405 629.999999 
L 188.417355 629.999998 
L 196.103306 629.999996 
L 203.789256 629.999993 
L 211.475207 629.999989 
L 219.161157 629.99998 
L 226.847107 629.999966 
L 234.533058 629.999943 
L 242.219008 629.999905 
L 249.904959 629.999842 
L 257.590909 629.99974 
L 265.27686 629.999575 
L 272.96281 629.999311 
L 280.64876 629.998893 
L 288.334711 629.998237 
L 296.020661 629.997216 
L 303.706612 629.99564 
L 311.392562 629.99323 
L 319.078512 629.989576 
L 326.764463 629.984085 
L 334.450413 629.975908 
L 342.136364 629.963837 
L 349.822314 629.946177 
L 357.508264 629.920569 
L 365.194215 629.883767 
L 372.880165 629.831351 
L 380.566116 629.757364 
L 388.252066 629.653867 
L 395.938017 629.510393 
L 403.623967 629.313297 
L 411.309917 629.044994 
L 418.995868 628.683079 
L 426.681818 628.199348 
L 434.367769 627.558728 
L 442.053719 626.718149 
L 449.739669 625.625403 
L 457.42562 624.21806 
L 465.11157 622.422508 
L 472.797521 620.15323 
L 480.483471 617.312429 
L 488.169421 613.79013 
L 495.855372 609.464892 
L 503.541322 604.205281 
L 511.227273 597.872198 
L 518.913223 590.322199 
L 526.599174 581.411828 
L 534.285124 571.003003 
L 541.971074 558.969375 
L 549.657025 545.203535 
L 557.342975 529.624843 
L 565.028926 512.187571 
L 572.714876 492.88898 
L 580.400826 471.776861 
L 588.086777 448.956052 
L 595.772727 424.593394 
L 603.458678 398.920625 
L 611.144628 372.234766 
L 618.830579 344.895625 
L 626.516529 317.320217 
L 634.202479 289.974019 
L 641.88843 263.359206 
L 649.57438 238.000197 
L 657.260331 214.427029 
L 664.946281 193.157263 
L 672.632231 174.677275 
L 680.318182 159.423848 
L 688.004132 147.767049 
L 695.690083 139.995315 
L 703.376033 136.303596 
L 711.061983 136.785228 
L 718.747934 141.428006 
L 726.433884 150.114704 
L 734.119835 162.627991 
L 741.805785 178.65947 
L 749.491736 197.822302 
L 757.177686 219.666711 
L 764.863636 243.69749 
L 772.549587 269.392553 
L 780.235537 296.221597 
L 787.921488 323.663916 
L 795.607438 351.224592 
L 803.293388 378.448365 
L 810.979339 404.930726 
L 818.665289 430.325936 
L 826.35124 454.351888 
L 834.03719 476.791911 
L 841.72314 497.493774 
L 849.409091 516.366271 
L 857.095041 533.373865 
L 864.780992 548.529882 
L 872.466942 561.888812 
L 880.152893 573.53817 
L 887.838843 583.5904 
L 895.524793 592.175161 
L 903.210744 599.432303 
L 910.896694 605.505716 
L 918.582645 610.538194 
L 926.268595 614.667325 
L 933.954545 618.02242 
" style="fill:none;stroke:#00008b;stroke-linecap:square;stroke-width:1.5;"/>
   </g>
   <g id="line2d_13">
    <path clip-path="url(#p5201491f00)" d="M 173.045455 595.160637 
L 180.731405 586.355105 
L 188.417355 575.994619 
L 196.103306 563.994372 
L 203.789256 550.31708 
L 211.475207 534.985506 
L 219.161157 518.093626 
L 226.847107 499.815244 
L 234.533058 480.40889 
L 242.219008 460.217947 
L 249.904959 439.665235 
L 257.590909 419.241643 
L 265.27686 399.488905 
L 272.96281 380.977146 
L 280.64876 364.27836 
L 288.334711 349.937484 
L 296.020661 338.443055 
L 303.706612 330.199646 
L 311.392562 325.50425 
L 319.078512 324.528517 
L 326.764463 327.308339 
L 334.450413 333.741661 
L 342.136364 343.594698 
L 349.822314 356.516034 
L 357.508264 372.057426 
L 365.194215 389.699579 
L 372.880165 408.880838 
L 380.566116 429.026603 
L 388.252066 449.577329 
L 395.938017 470.01326 
L 403.623967 489.874487 
L 411.309917 508.775393 
L 418.995868 526.413133 
L 426.681818 542.570307 
L 434.367769 557.112416 
L 442.053719 569.981035 
L 449.739669 581.18382 
L 457.42562 590.782543 
L 465.11157 598.8803 
L 472.797521 605.608881 
L 480.483471 611.117113 
L 488.169421 615.560724 
L 495.855372 619.094069 
L 503.541322 621.863822 
L 511.227273 624.004595 
L 518.913223 625.63628 
L 526.599174 626.862848 
L 534.285124 627.77231 
L 541.971074 628.437521 
L 549.657025 628.917535 
L 557.342975 629.25928 
L 565.028926 629.49935 
L 572.714876 629.665762 
L 580.400826 629.779598 
L 588.086777 629.856445 
L 595.772727 629.907645 
L 603.458678 629.941313 
L 611.144628 629.963165 
L 618.830579 629.977164 
L 626.516529 629.986016 
L 634.202479 629.991542 
L 641.88843 629.994947 
L 649.57438 629.997018 
L 657.260331 629.998262 
L 664.946281 629.998999 
L 672.632231 629.999431 
L 680.318182 629.99968 
L 688.004132 629.999823 
L 695.690083 629.999903 
L 703.376033 629.999947 
L 711.061983 629.999972 
L 718.747934 629.999985 
L 726.433884 629.999992 
L 734.119835 629.999996 
L 741.805785 629.999998 
L 749.491736 629.999999 
L 757.177686 629.999999 
L 764.863636 630 
L 772.549587 630 
L 780.235537 630 
L 787.921488 630 
L 795.607438 630 
L 803.293388 630 
L 810.979339 630 
L 818.665289 630 
L 826.35124 630 
L 834.03719 630 
L 841.72314 630 
L 849.409091 630 
L 857.095041 630 
L 864.780992 630 
L 872.466942 630 
L 880.152893 630 
L 887.838843 630 
L 895.524793 630 
L 903.210744 630 
L 910.896694 630 
L 918.582645 630 
L 926.268595 630 
L 933.954545 630 
" style="fill:none;stroke:#008000;stroke-dasharray:5.55,2.4;stroke-dashoffset:0;stroke-width:1.5;"/>
   </g>
   <g id="line2d_14">
    <path clip-path="url(#p5201491f00)" d="M 173.045455 629.998462 
L 180.731405 629.997775 
L 188.417355 629.996797 
L 196.103306 629.995416 
L 203.789256 629.993476 
L 211.475207 629.990765 
L 219.161157 629.987 
L 226.847107 629.981801 
L 234.533058 629.974664 
L 242.219008 629.964923 
L 249.904959 629.951704 
L 257.590909 629.93387 
L 265.27686 629.909952 
L 272.96281 629.87806 
L 280.64876 629.835785 
L 288.334711 629.780074 
L 296.020661 629.70709 
L 303.706612 629.612039 
L 311.392562 629.488981 
L 319.078512 629.330606 
L 326.764463 629.127989 
L 334.450413 628.870315 
L 342.136364 628.54458 
L 349.822314 628.135277 
L 357.508264 627.624058 
L 365.194215 626.989402 
L 372.880165 626.206282 
L 380.566116 625.245851 
L 388.252066 624.075171 
L 395.938017 622.656988 
L 403.623967 620.949593 
L 411.309917 618.906788 
L 418.995868 616.47797 
L 426.681818 613.60838 
L 434.367769 610.239532 
L 442.053719 606.309841 
L 449.739669 601.755486 
L 457.42562 596.511506 
L 465.11157 590.513149 
L 472.797521 583.697464 
L 480.483471 576.005137 
L 488.169421 567.382534 
L 495.855372 557.78392 
L 503.541322 547.173803 
L 511.227273 535.529348 
L 518.913223 522.842767 
L 526.599174 509.123619 
L 534.285124 494.400904 
L 541.971074 478.724875 
L 549.657025 462.168441 
L 557.342975 444.828084 
L 565.028926 426.824191 
L 572.714876 408.300734 
L 580.400826 389.424222 
L 588.086777 370.381926 
L 595.772727 351.37933 
L 603.458678 332.636866 
L 611.144628 314.38597 
L 618.830579 296.864543 
L 626.516529 280.311942 
L 634.202479 264.963639 
L 641.88843 251.045704 
L 649.57438 238.7693 
L 657.260331 228.325371 
L 664.946281 219.879707 
L 672.632231 213.56857 
L 680.318182 209.495038 
L 688.004132 207.726203 
L 695.690083 208.291335 
L 703.376033 211.181074 
L 711.061983 216.347687 
L 718.747934 223.706385 
L 726.433884 233.13763 
L 734.119835 244.490372 
L 741.805785 257.586068 
L 749.491736 272.223349 
L 757.177686 288.183163 
L 764.863636 305.234198 
L 772.549587 323.138421 
L 780.235537 341.656529 
L 787.921488 360.553149 
L 795.607438 379.601636 
L 803.293388 398.588337 
L 810.979339 417.316214 
L 818.665289 435.607768 
L 826.35124 453.307216 
L 834.03719 470.281912 
L 841.72314 486.423033 
L 849.409091 501.645579 
L 857.095041 515.887749 
L 864.780992 529.109774 
L 872.466942 541.292304 
L 880.152893 552.434448 
L 887.838843 562.551567 
L 895.524793 571.672922 
L 903.210744 579.839257 
L 910.896694 587.100416 
L 918.582645 593.513048 
L 926.268595 599.138468 
L 933.954545 604.040714 
" style="fill:none;stroke:#006400;stroke-dasharray:5.55,2.4;stroke-dashoffset:0;stroke-width:1.5;"/>
   </g>
   <g id="line2d_15">
    <path clip-path="url(#p5201491f00)" d="M 173.045455 629.91517 
L 180.731405 629.890181 
L 188.417355 629.858399 
L 196.103306 629.818151 
L 203.789256 629.767398 
L 211.475207 629.703671 
L 219.161157 629.623998 
L 226.847107 629.524814 
L 234.533058 629.401871 
L 242.219008 629.250135 
L 249.904959 629.063671 
L 257.590909 628.835523 
L 265.27686 628.557585 
L 272.96281 628.220463 
L 280.64876 627.813342 
L 288.334711 627.323841 
L 296.020661 626.737879 
L 303.706612 626.039543 
L 311.392562 625.210967 
L 319.078512 624.232238 
L 326.764463 623.081306 
L 334.450413 621.733951 
L 342.136364 620.163763 
L 349.822314 618.342185 
L 357.508264 616.238604 
L 365.194215 613.820506 
L 372.880165 611.053694 
L 380.566116 607.902593 
L 388.252066 604.33063 
L 395.938017 600.300697 
L 403.623967 595.775709 
L 411.309917 590.719248 
L 418.995868 585.096284 
L 426.681818 578.873988 
L 434.367769 572.022605 
L 442.053719 564.516388 
L 449.739669 556.334575 
L 457.42562 547.462385 
L 465.11157 537.892015 
L 472.797521 527.623614 
L 480.483471 516.666199 
L 488.169421 505.038491 
L 495.855372 492.769637 
L 503.541322 479.899786 
L 511.227273 466.480498 
L 518.913223 452.574946 
L 526.599174 438.257898 
L 534.285124 423.615457 
L 541.971074 408.744539 
L 549.657025 393.752089 
L 557.342975 378.754033 
L 565.028926 363.873961 
L 572.714876 349.241582 
L 580.400826 334.990943 
L 588.086777 321.258466 
L 595.772727 308.180828 
L 603.458678 295.892738 
L 611.144628 284.524651 
L 618.830579 274.200479 
L 626.516529 265.035351 
L 634.202479 257.133481 
L 641.88843 250.5862 
L 649.57438 245.470199 
L 657.260331 241.846031 
L 664.946281 239.756926 
L 672.632231 239.227922 
L 680.318182 240.265375 
L 688.004132 242.856828 
L 695.690083 246.971259 
L 703.376033 252.559699 
L 711.061983 259.556208 
L 718.747934 267.879159 
L 726.433884 277.432833 
L 734.119835 288.109245 
L 741.805785 299.790172 
L 749.491736 312.349327 
L 757.177686 325.654622 
L 764.863636 339.570459 
L 772.549587 353.960004 
L 780.235537 368.687381 
L 787.921488 383.619746 
L 795.607438 398.629193 
L 803.293388 413.594461 
L 810.979339 428.402414 
L 818.665289 442.94926 
L 826.35124 457.141524 
L 834.03719 470.896741 
L 841.72314 484.143893 
L 849.409091 496.82359 
L 857.095041 508.88801 
L 864.780992 520.300633 
L 872.466942 531.03577 
L 880.152893 541.077939 
L 887.838843 550.421098 
L 895.524793 559.067787 
L 903.210744 567.028183 
L 910.896694 574.319121 
L 918.582645 580.963091 
L 926.268595 586.987247 
L 933.954545 592.422443 
" style="fill:none;stroke:#ff0000;stroke-dasharray:9.6,2.4,1.5,2.4;stroke-dashoffset:0;stroke-width:1.5;"/>
   </g>
   <g id="line2d_16">
    <path clip-path="url(#p5201491f00)" d="M 173.045455 567.544897 
L 180.731405 550.498707 
L 188.417355 530.751704 
L 196.103306 508.489301 
L 203.789256 484.102255 
L 211.475207 458.199179 
L 219.161157 431.598711 
L 226.847107 405.29831 
L 234.533058 380.419421 
L 242.219008 358.132162 
L 249.904959 339.565986 
L 257.590909 325.71558 
L 265.27686 317.352792 
L 272.96281 314.955437 
L 280.64876 318.662079 
L 288.334711 328.258774 
L 296.020661 343.199517 
L 303.706612 362.657686 
L 311.392562 385.601732 
L 319.078512 410.885487 
L 326.764463 437.342128 
L 334.450413 463.871183 
L 342.136364 489.50988 
L 349.822314 513.483027 
L 357.508264 535.229058 
L 365.194215 554.403132 
L 372.880165 570.86086 
L 380.566116 584.627908 
L 388.252066 595.86144 
L 395.938017 604.809071 
L 403.623967 611.770037 
L 411.309917 617.061916 
L 418.995868 620.99473 
L 426.681818 623.852959 
L 434.367769 625.884922 
L 442.053719 627.298328 
L 449.739669 628.260478 
L 457.42562 628.901577 
L 465.11157 629.319776 
L 472.797521 629.586879 
L 480.483471 629.753938 
L 488.169421 629.856268 
L 495.855372 629.917661 
L 503.541322 629.95374 
L 511.227273 629.974512 
L 518.913223 629.986227 
L 526.599174 629.992701 
L 534.285124 629.996207 
L 541.971074 629.998067 
L 549.657025 629.999034 
L 557.342975 629.999526 
L 565.028926 629.999772 
L 572.714876 629.999893 
L 580.400826 629.99995 
L 588.086777 629.999977 
L 595.772727 629.99999 
L 603.458678 629.999996 
L 611.144628 629.999998 
L 618.830579 629.999999 
L 626.516529 630 
L 634.202479 630 
L 641.88843 630 
L 649.57438 630 
L 657.260331 630 
L 664.946281 630 
L 672.632231 630 
L 680.318182 630 
L 688.004132 630 
L 695.690083 630 
L 703.376033 630 
L 711.061983 630 
L 718.747934 630 
L 726.433884 630 
L 734.119835 630 
L 741.805785 630 
L 749.491736 630 
L 757.177686 630 
L 764.863636 630 
L 772.549587 630 
L 780.235537 630 
L 787.921488 630 
L 795.607438 630 
L 803.293388 630 
L 810.979339 630 
L 818.665289 630 
L 826.35124 630 
L 834.03719 630 
L 841.72314 630 
L 849.409091 630 
L 857.095041 630 
L 864.780992 630 
L 872.466942 630 
L 880.152893 630 
L 887.838843 630 
L 895.524793 630 
L 903.210744 630 
L 910.896694 630 
L 918.582645 630 
L 926.268595 630 
L 933.954545 630 
" style="fill:none;stroke:#8b0000;stroke-dasharray:9.6,2.4,1.5,2.4;stroke-dashoffset:0;stroke-width:1.5;"/>
   </g>
   <g id="patch_23">
    <path d="M 135 630 
L 135 86.4 
" style="fill:none;stroke:#000000;stroke-linecap:square;stroke-linejoin:miter;stroke-width:0.8;"/>
   </g>
   <g id="patch_24">
    <path d="M 972 630 
L 972 86.4 
" style="fill:none;stroke:#000000;stroke-linecap:square;stroke-linejoin:miter;stroke-width:0.8;"/>
   </g>
   <g id="patch_25">
    <path d="M 135 630 
L 972 630 
" style="fill:none;stroke:#000000;stroke-linecap:square;stroke-linejoin:miter;stroke-width:0.8;"/>
   </g>
   <g id="patch_26">
    <path d="M 135 86.4 
L 972 86.4 
" style="fill:none;stroke:#000000;stroke-linecap:square;stroke-linejoin:miter;stroke-width:0.8;"/>
   </g>
   <g id="text_13">
    <!-- Non-DP, Central-DP, and Local-DP Mixtures -->
    <g transform="translate(424.502813 80.4)scale(0.12 -0.12)">
     <defs>
      <path d="M 628 4666 
L 1478 4666 
L 3547 763 
L 3547 4666 
L 4159 4666 
L 4159 0 
L 3309 0 
L 1241 3903 
L 1241 0 
L 628 0 
L 628 4666 
z
" id="DejaVuSans-4e" transform="scale(0.015625)"/>
      <path d="M 1959 3097 
Q 1497 3097 1228 2736 
Q 959 2375 959 1747 
Q 959 1119 1226 758 
Q 1494 397 1959 397 
Q 2419 397 2687 759 
Q 2956 1122 2956 1747 
Q 2956 2369 2687 2733 
Q 2419 3097 1959 3097 
z
M 1959 3584 
Q 2709 3584 3137 3096 
Q 3566 2609 3566 1747 
Q 3566 888 3137 398 
Q 2709 -91 1959 -91 
Q 1206 -91 779 398 
Q 353 888 353 1747 
Q 353 2609 779 3096 
Q 1206 3584 1959 3584 
z
" id="DejaVuSans-6f" transform="scale(0.015625)"/>
      <path d="M 313 2009 
L 1997 2009 
L 1997 1497 
L 313 1497 
L 313 2009 
z
" id="DejaVuSans-2d" transform="scale(0.015625)"/>
      <path d="M 1259 4147 
L 1259 519 
L 2022 519 
Q 2988 519 3436 956 
Q 3884 1394 3884 2338 
Q 3884 3275 3436 3711 
Q 2988 4147 2022 4147 
L 1259 4147 
z
M 628 4666 
L 1925 4666 
Q 3281 4666 3915 4102 
Q 4550 3538 4550 2338 
Q 4550 1131 3912 565 
Q 3275 0 1925 0 
L 628 0 
L 628 4666 
z
" id="DejaVuSans-44" transform="scale(0.015625)"/>
      <path d="M 1259 4147 
L 1259 2394 
L 2053 2394 
Q 2494 2394 2734 2622 
Q 2975 2850 2975 3272 
Q 2975 3691 2734 3919 
Q 2494 4147 2053 4147 
L 1259 4147 
z
M 628 4666 
L 2053 4666 
Q 2838 4666 3239 4311 
Q 3641 3956 3641 3272 
Q 3641 2581 3239 2228 
Q 2838 1875 2053 1875 
L 1259 1875 
L 1259 0 
L 628 0 
L 628 4666 
z
" id="DejaVuSans-50" transform="scale(0.015625)"/>
      <path d="M 750 794 
L 1409 794 
L 1409 256 
L 897 -744 
L 494 -744 
L 750 256 
L 750 794 
z
" id="DejaVuSans-2c" transform="scale(0.015625)"/>
      <path d="M 4122 4306 
L 4122 3641 
Q 3803 3938 3442 4084 
Q 3081 4231 2675 4231 
Q 1875 4231 1450 3742 
Q 1025 3253 1025 2328 
Q 1025 1406 1450 917 
Q 1875 428 2675 428 
Q 3081 428 3442 575 
Q 3803 722 4122 1019 
L 4122 359 
Q 3791 134 3420 21 
Q 3050 -91 2638 -91 
Q 1578 -91 968 557 
Q 359 1206 359 2328 
Q 359 3453 968 4101 
Q 1578 4750 2638 4750 
Q 3056 4750 3426 4639 
Q 3797 4528 4122 4306 
z
" id="DejaVuSans-43" transform="scale(0.015625)"/>
      <path d="M 1172 4494 
L 1172 3500 
L 2356 3500 
L 2356 3053 
L 1172 3053 
L 1172 1153 
Q 1172 725 1289 603 
Q 1406 481 1766 481 
L 2356 481 
L 2356 0 
L 1766 0 
Q 1100 0 847 248 
Q 594 497 594 1153 
L 594 3053 
L 172 3053 
L 172 3500 
L 594 3500 
L 594 4494 
L 1172 4494 
z
" id="DejaVuSans-74" transform="scale(0.015625)"/>
      <path d="M 2194 1759 
Q 1497 1759 1228 1600 
Q 959 1441 959 1056 
Q 959 750 1161 570 
Q 1363 391 1709 391 
Q 2188 391 2477 730 
Q 2766 1069 2766 1631 
L 2766 1759 
L 2194 1759 
z
M 3341 1997 
L 3341 0 
L 2766 0 
L 2766 531 
Q 2569 213 2275 61 
Q 1981 -91 1556 -91 
Q 1019 -91 701 211 
Q 384 513 384 1019 
Q 384 1609 779 1909 
Q 1175 2209 1959 2209 
L 2766 2209 
L 2766 2266 
Q 2766 2663 2505 2880 
Q 2244 3097 1772 3097 
Q 1472 3097 1187 3025 
Q 903 2953 641 2809 
L 641 3341 
Q 956 3463 1253 3523 
Q 1550 3584 1831 3584 
Q 2591 3584 2966 3190 
Q 3341 2797 3341 1997 
z
" id="DejaVuSans-61" transform="scale(0.015625)"/>
      <path d="M 603 4863 
L 1178 4863 
L 1178 0 
L 603 0 
L 603 4863 
z
" id="DejaVuSans-6c" transform="scale(0.015625)"/>
      <path d="M 2906 2969 
L 2906 4863 
L 3481 4863 
L 3481 0 
L 2906 0 
L 2906 525 
Q 2725 213 2448 61 
Q 2172 -91 1784 -91 
Q 1150 -91 751 415 
Q 353 922 353 1747 
Q 353 2572 751 3078 
Q 1150 3584 1784 3584 
Q 2172 3584 2448 3432 
Q 2725 3281 2906 2969 
z
M 947 1747 
Q 947 1113 1208 752 
Q 1469 391 1925 391 
Q 2381 391 2643 752 
Q 2906 1113 2906 1747 
Q 2906 2381 2643 2742 
Q 2381 3103 1925 3103 
Q 1469 3103 1208 2742 
Q 947 2381 947 1747 
z
" id="DejaVuSans-64" transform="scale(0.015625)"/>
      <path d="M 628 4666 
L 1259 4666 
L 1259 531 
L 3531 531 
L 3531 0 
L 628 0 
L 628 4666 
z
" id="DejaVuSans-4c" transform="scale(0.015625)"/>
      <path d="M 628 4666 
L 1569 4666 
L 2759 1491 
L 3956 4666 
L 4897 4666 
L 4897 0 
L 4281 0 
L 4281 4097 
L 3078 897 
L 2444 897 
L 1241 4097 
L 1241 0 
L 628 0 
L 628 4666 
z
" id="DejaVuSans-4d" transform="scale(0.015625)"/>
      <path d="M 3513 3500 
L 2247 1797 
L 3578 0 
L 2900 0 
L 1881 1375 
L 863 0 
L 184 0 
L 1544 1831 
L 300 3500 
L 978 3500 
L 1906 2253 
L 2834 3500 
L 3513 3500 
z
" id="DejaVuSans-78" transform="scale(0.015625)"/>
      <path d="M 2834 3397 
L 2834 2853 
Q 2591 2978 2328 3040 
Q 2066 3103 1784 3103 
Q 1356 3103 1142 2972 
Q 928 2841 928 2578 
Q 928 2378 1081 2264 
Q 1234 2150 1697 2047 
L 1894 2003 
Q 2506 1872 2764 1633 
Q 3022 1394 3022 966 
Q 3022 478 2636 193 
Q 2250 -91 1575 -91 
Q 1294 -91 989 -36 
Q 684 19 347 128 
L 347 722 
Q 666 556 975 473 
Q 1284 391 1588 391 
Q 1994 391 2212 530 
Q 2431 669 2431 922 
Q 2431 1156 2273 1281 
Q 2116 1406 1581 1522 
L 1381 1569 
Q 847 1681 609 1914 
Q 372 2147 372 2553 
Q 372 3047 722 3315 
Q 1072 3584 1716 3584 
Q 2034 3584 2315 3537 
Q 2597 3491 2834 3397 
z
" id="DejaVuSans-73" transform="scale(0.015625)"/>
     </defs>
     <use xlink:href="#DejaVuSans-4e"/>
     <use x="74.804688" xlink:href="#DejaVuSans-6f"/>
     <use x="135.986328" xlink:href="#DejaVuSans-6e"/>
     <use x="199.365234" xlink:href="#DejaVuSans-2d"/>
     <use x="235.449219" xlink:href="#DejaVuSans-44"/>
     <use x="312.451172" xlink:href="#DejaVuSans-50"/>
     <use x="372.753906" xlink:href="#DejaVuSans-2c"/>
     <use x="404.541016" xlink:href="#DejaVuSans-20"/>
     <use x="436.328125" xlink:href="#DejaVuSans-43"/>
     <use x="506.152344" xlink:href="#DejaVuSans-65"/>
     <use x="567.675781" xlink:href="#DejaVuSans-6e"/>
     <use x="631.054688" xlink:href="#DejaVuSans-74"/>
     <use x="670.263672" xlink:href="#DejaVuSans-72"/>
     <use x="711.376953" xlink:href="#DejaVuSans-61"/>
     <use x="772.65625" xlink:href="#DejaVuSans-6c"/>
     <use x="800.439453" xlink:href="#DejaVuSans-2d"/>
     <use x="836.523438" xlink:href="#DejaVuSans-44"/>
     <use x="913.525391" xlink:href="#DejaVuSans-50"/>
     <use x="973.828125" xlink:href="#DejaVuSans-2c"/>
     <use x="1005.615234" xlink:href="#DejaVuSans-20"/>
     <use x="1037.402344" xlink:href="#DejaVuSans-61"/>
     <use x="1098.681641" xlink:href="#DejaVuSans-6e"/>
     <use x="1162.060547" xlink:href="#DejaVuSans-64"/>
     <use x="1225.537109" xlink:href="#DejaVuSans-20"/>
     <use x="1257.324219" xlink:href="#DejaVuSans-4c"/>
     <use x="1311.287109" xlink:href="#DejaVuSans-6f"/>
     <use x="1372.46875" xlink:href="#DejaVuSans-63"/>
     <use x="1427.449219" xlink:href="#DejaVuSans-61"/>
     <use x="1488.728516" xlink:href="#DejaVuSans-6c"/>
     <use x="1516.511719" xlink:href="#DejaVuSans-2d"/>
     <use x="1552.595703" xlink:href="#DejaVuSans-44"/>
     <use x="1629.597656" xlink:href="#DejaVuSans-50"/>
     <use x="1689.900391" xlink:href="#DejaVuSans-20"/>
     <use x="1721.6875" xlink:href="#DejaVuSans-4d"/>
     <use x="1807.966797" xlink:href="#DejaVuSans-69"/>
     <use x="1835.75" xlink:href="#DejaVuSans-78"/>
     <use x="1894.929688" xlink:href="#DejaVuSans-74"/>
     <use x="1934.138672" xlink:href="#DejaVuSans-75"/>
     <use x="1997.517578" xlink:href="#DejaVuSans-72"/>
     <use x="2036.380859" xlink:href="#DejaVuSans-65"/>
     <use x="2097.904297" xlink:href="#DejaVuSans-73"/>
    </g>
   </g>
   <g id="legend_1">
    <g id="patch_27">
     <path d="M 824.948437 197.146875 
L 965 197.146875 
Q 967 197.146875 967 195.146875 
L 967 93.4 
Q 967 91.4 965 91.4 
L 824.948437 91.4 
Q 822.948437 91.4 822.948437 93.4 
L 822.948437 195.146875 
Q 822.948437 197.146875 824.948437 197.146875 
z
" style="fill:#ffffff;opacity:0.8;stroke:#cccccc;stroke-linejoin:miter;"/>
    </g>
    <g id="line2d_17">
     <path d="M 826.948437 99.498437 
L 846.948437 99.498437 
" style="fill:none;stroke:#0000ff;stroke-linecap:square;stroke-width:1.5;"/>
    </g>
    <g id="line2d_18"/>
    <g id="text_14">
     <!-- Non-DP Component 1 -->
     <g transform="translate(854.948437 102.998437)scale(0.1 -0.1)">
      <defs>
       <path d="M 1159 525 
L 1159 -1331 
L 581 -1331 
L 581 3500 
L 1159 3500 
L 1159 2969 
Q 1341 3281 1617 3432 
Q 1894 3584 2278 3584 
Q 2916 3584 3314 3078 
Q 3713 2572 3713 1747 
Q 3713 922 3314 415 
Q 2916 -91 2278 -91 
Q 1894 -91 1617 61 
Q 1341 213 1159 525 
z
M 3116 1747 
Q 3116 2381 2855 2742 
Q 2594 3103 2138 3103 
Q 1681 3103 1420 2742 
Q 1159 2381 1159 1747 
Q 1159 1113 1420 752 
Q 1681 391 2138 391 
Q 2594 391 2855 752 
Q 3116 1113 3116 1747 
z
" id="DejaVuSans-70" transform="scale(0.015625)"/>
      </defs>
      <use xlink:href="#DejaVuSans-4e"/>
      <use x="74.804688" xlink:href="#DejaVuSans-6f"/>
      <use x="135.986328" xlink:href="#DejaVuSans-6e"/>
      <use x="199.365234" xlink:href="#DejaVuSans-2d"/>
      <use x="235.449219" xlink:href="#DejaVuSans-44"/>
      <use x="312.451172" xlink:href="#DejaVuSans-50"/>
      <use x="372.753906" xlink:href="#DejaVuSans-20"/>
      <use x="404.541016" xlink:href="#DejaVuSans-43"/>
      <use x="474.365234" xlink:href="#DejaVuSans-6f"/>
      <use x="535.546875" xlink:href="#DejaVuSans-6d"/>
      <use x="632.958984" xlink:href="#DejaVuSans-70"/>
      <use x="696.435547" xlink:href="#DejaVuSans-6f"/>
      <use x="757.617188" xlink:href="#DejaVuSans-6e"/>
      <use x="820.996094" xlink:href="#DejaVuSans-65"/>
      <use x="882.519531" xlink:href="#DejaVuSans-6e"/>
      <use x="945.898438" xlink:href="#DejaVuSans-74"/>
      <use x="985.107422" xlink:href="#DejaVuSans-20"/>
      <use x="1016.894531" xlink:href="#DejaVuSans-31"/>
     </g>
    </g>
    <g id="line2d_19">
     <path d="M 826.948437 114.176562 
L 846.948437 114.176562 
" style="fill:none;stroke:#00008b;stroke-linecap:square;stroke-width:1.5;"/>
    </g>
    <g id="line2d_20"/>
    <g id="text_15">
     <!-- Non-DP Component 2 -->
     <g transform="translate(854.948437 117.676562)scale(0.1 -0.1)">
      <use xlink:href="#DejaVuSans-4e"/>
      <use x="74.804688" xlink:href="#DejaVuSans-6f"/>
      <use x="135.986328" xlink:href="#DejaVuSans-6e"/>
      <use x="199.365234" xlink:href="#DejaVuSans-2d"/>
      <use x="235.449219" xlink:href="#DejaVuSans-44"/>
      <use x="312.451172" xlink:href="#DejaVuSans-50"/>
      <use x="372.753906" xlink:href="#DejaVuSans-20"/>
      <use x="404.541016" xlink:href="#DejaVuSans-43"/>
      <use x="474.365234" xlink:href="#DejaVuSans-6f"/>
      <use x="535.546875" xlink:href="#DejaVuSans-6d"/>
      <use x="632.958984" xlink:href="#DejaVuSans-70"/>
      <use x="696.435547" xlink:href="#DejaVuSans-6f"/>
      <use x="757.617188" xlink:href="#DejaVuSans-6e"/>
      <use x="820.996094" xlink:href="#DejaVuSans-65"/>
      <use x="882.519531" xlink:href="#DejaVuSans-6e"/>
      <use x="945.898438" xlink:href="#DejaVuSans-74"/>
      <use x="985.107422" xlink:href="#DejaVuSans-20"/>
      <use x="1016.894531" xlink:href="#DejaVuSans-32"/>
     </g>
    </g>
    <g id="line2d_21">
     <path d="M 826.948437 128.854687 
L 846.948437 128.854687 
" style="fill:none;stroke:#008000;stroke-dasharray:5.55,2.4;stroke-dashoffset:0;stroke-width:1.5;"/>
    </g>
    <g id="line2d_22"/>
    <g id="text_16">
     <!-- CDP Component 1 -->
     <g transform="translate(854.948437 132.354687)scale(0.1 -0.1)">
      <use xlink:href="#DejaVuSans-43"/>
      <use x="69.824219" xlink:href="#DejaVuSans-44"/>
      <use x="146.826172" xlink:href="#DejaVuSans-50"/>
      <use x="207.128906" xlink:href="#DejaVuSans-20"/>
      <use x="238.916016" xlink:href="#DejaVuSans-43"/>
      <use x="308.740234" xlink:href="#DejaVuSans-6f"/>
      <use x="369.921875" xlink:href="#DejaVuSans-6d"/>
      <use x="467.333984" xlink:href="#DejaVuSans-70"/>
      <use x="530.810547" xlink:href="#DejaVuSans-6f"/>
      <use x="591.992188" xlink:href="#DejaVuSans-6e"/>
      <use x="655.371094" xlink:href="#DejaVuSans-65"/>
      <use x="716.894531" xlink:href="#DejaVuSans-6e"/>
      <use x="780.273438" xlink:href="#DejaVuSans-74"/>
      <use x="819.482422" xlink:href="#DejaVuSans-20"/>
      <use x="851.269531" xlink:href="#DejaVuSans-31"/>
     </g>
    </g>
    <g id="line2d_23">
     <path d="M 826.948437 143.532812 
L 846.948437 143.532812 
" style="fill:none;stroke:#006400;stroke-dasharray:5.55,2.4;stroke-dashoffset:0;stroke-width:1.5;"/>
    </g>
    <g id="line2d_24"/>
    <g id="text_17">
     <!-- CDP Component 2 -->
     <g transform="translate(854.948437 147.032812)scale(0.1 -0.1)">
      <use xlink:href="#DejaVuSans-43"/>
      <use x="69.824219" xlink:href="#DejaVuSans-44"/>
      <use x="146.826172" xlink:href="#DejaVuSans-50"/>
      <use x="207.128906" xlink:href="#DejaVuSans-20"/>
      <use x="238.916016" xlink:href="#DejaVuSans-43"/>
      <use x="308.740234" xlink:href="#DejaVuSans-6f"/>
      <use x="369.921875" xlink:href="#DejaVuSans-6d"/>
      <use x="467.333984" xlink:href="#DejaVuSans-70"/>
      <use x="530.810547" xlink:href="#DejaVuSans-6f"/>
      <use x="591.992188" xlink:href="#DejaVuSans-6e"/>
      <use x="655.371094" xlink:href="#DejaVuSans-65"/>
      <use x="716.894531" xlink:href="#DejaVuSans-6e"/>
      <use x="780.273438" xlink:href="#DejaVuSans-74"/>
      <use x="819.482422" xlink:href="#DejaVuSans-20"/>
      <use x="851.269531" xlink:href="#DejaVuSans-32"/>
     </g>
    </g>
    <g id="line2d_25">
     <path d="M 826.948437 158.210937 
L 846.948437 158.210937 
" style="fill:none;stroke:#ff0000;stroke-dasharray:9.6,2.4,1.5,2.4;stroke-dashoffset:0;stroke-width:1.5;"/>
    </g>
    <g id="line2d_26"/>
    <g id="text_18">
     <!-- LDP Component 1 -->
     <g transform="translate(854.948437 161.710937)scale(0.1 -0.1)">
      <use xlink:href="#DejaVuSans-4c"/>
      <use x="55.712891" xlink:href="#DejaVuSans-44"/>
      <use x="132.714844" xlink:href="#DejaVuSans-50"/>
      <use x="193.017578" xlink:href="#DejaVuSans-20"/>
      <use x="224.804688" xlink:href="#DejaVuSans-43"/>
      <use x="294.628906" xlink:href="#DejaVuSans-6f"/>
      <use x="355.810547" xlink:href="#DejaVuSans-6d"/>
      <use x="453.222656" xlink:href="#DejaVuSans-70"/>
      <use x="516.699219" xlink:href="#DejaVuSans-6f"/>
      <use x="577.880859" xlink:href="#DejaVuSans-6e"/>
      <use x="641.259766" xlink:href="#DejaVuSans-65"/>
      <use x="702.783203" xlink:href="#DejaVuSans-6e"/>
      <use x="766.162109" xlink:href="#DejaVuSans-74"/>
      <use x="805.371094" xlink:href="#DejaVuSans-20"/>
      <use x="837.158203" xlink:href="#DejaVuSans-31"/>
     </g>
    </g>
    <g id="line2d_27">
     <path d="M 826.948437 172.889062 
L 846.948437 172.889062 
" style="fill:none;stroke:#8b0000;stroke-dasharray:9.6,2.4,1.5,2.4;stroke-dashoffset:0;stroke-width:1.5;"/>
    </g>
    <g id="line2d_28"/>
    <g id="text_19">
     <!-- LDP Component 2 -->
     <g transform="translate(854.948437 176.389062)scale(0.1 -0.1)">
      <use xlink:href="#DejaVuSans-4c"/>
      <use x="55.712891" xlink:href="#DejaVuSans-44"/>
      <use x="132.714844" xlink:href="#DejaVuSans-50"/>
      <use x="193.017578" xlink:href="#DejaVuSans-20"/>
      <use x="224.804688" xlink:href="#DejaVuSans-43"/>
      <use x="294.628906" xlink:href="#DejaVuSans-6f"/>
      <use x="355.810547" xlink:href="#DejaVuSans-6d"/>
      <use x="453.222656" xlink:href="#DejaVuSans-70"/>
      <use x="516.699219" xlink:href="#DejaVuSans-6f"/>
      <use x="577.880859" xlink:href="#DejaVuSans-6e"/>
      <use x="641.259766" xlink:href="#DejaVuSans-65"/>
      <use x="702.783203" xlink:href="#DejaVuSans-6e"/>
      <use x="766.162109" xlink:href="#DejaVuSans-74"/>
      <use x="805.371094" xlink:href="#DejaVuSans-20"/>
      <use x="837.158203" xlink:href="#DejaVuSans-32"/>
     </g>
    </g>
    <g id="patch_28">
     <path d="M 826.948437 191.067187 
L 846.948437 191.067187 
L 846.948437 184.067187 
L 826.948437 184.067187 
z
" style="fill:#808080;opacity:0.5;"/>
    </g>
    <g id="text_20">
     <!-- True wait times -->
     <g transform="translate(854.948437 191.067187)scale(0.1 -0.1)">
      <defs>
       <path d="M 269 3500 
L 844 3500 
L 1563 769 
L 2278 3500 
L 2956 3500 
L 3675 769 
L 4391 3500 
L 4966 3500 
L 4050 0 
L 3372 0 
L 2619 2869 
L 1863 0 
L 1184 0 
L 269 3500 
z
" id="DejaVuSans-77" transform="scale(0.015625)"/>
      </defs>
      <use xlink:href="#DejaVuSans-54"/>
      <use x="46.333984" xlink:href="#DejaVuSans-72"/>
      <use x="87.447266" xlink:href="#DejaVuSans-75"/>
      <use x="150.826172" xlink:href="#DejaVuSans-65"/>
      <use x="212.349609" xlink:href="#DejaVuSans-20"/>
      <use x="244.136719" xlink:href="#DejaVuSans-77"/>
      <use x="325.923828" xlink:href="#DejaVuSans-61"/>
      <use x="387.203125" xlink:href="#DejaVuSans-69"/>
      <use x="414.986328" xlink:href="#DejaVuSans-74"/>
      <use x="454.195312" xlink:href="#DejaVuSans-20"/>
      <use x="485.982422" xlink:href="#DejaVuSans-74"/>
      <use x="525.191406" xlink:href="#DejaVuSans-69"/>
      <use x="552.974609" xlink:href="#DejaVuSans-6d"/>
      <use x="650.386719" xlink:href="#DejaVuSans-65"/>
      <use x="711.910156" xlink:href="#DejaVuSans-73"/>
     </g>
    </g>
   </g>
  </g>
 </g>
 <defs>
  <clipPath id="p5201491f00">
   <rect height="543.6" width="837" x="135" y="86.4"/>
  </clipPath>
 </defs>
</svg>
