<?xml version="1.0" encoding="utf-8" standalone="no"?>
<!DOCTYPE svg PUBLIC "-//W3C//DTD SVG 1.1//EN"
  "http://www.w3.org/Graphics/SVG/1.1/DTD/svg11.dtd">
<svg height="720pt" version="1.1" viewBox="0 0 2160 720" width="2160pt" xmlns="http://www.w3.org/2000/svg" xmlns:xlink="http://www.w3.org/1999/xlink">
 <metadata>
  <rdf:RDF xmlns:cc="http://creativecommons.org/ns#" xmlns:dc="http://purl.org/dc/elements/1.1/" xmlns:rdf="http://www.w3.org/1999/02/22-rdf-syntax-ns#">
   <cc:Work>
    <dc:type rdf:resource="http://purl.org/dc/dcmitype/StillImage"/>
    <dc:date>2022-05-05T14:00:14.798352</dc:date>
    <dc:format>image/svg+xml</dc:format>
    <dc:creator>
     <cc:Agent>
      <dc:title>Matplotlib v3.4.3, https://matplotlib.org/</dc:title>
     </cc:Agent>
    </dc:creator>
   </cc:Work>
  </rdf:RDF>
 </metadata>
 <defs>
  <style type="text/css">*{stroke-linecap:butt;stroke-linejoin:round;}</style>
 </defs>
 <g id="figure_1">
  <g id="patch_1">
   <path d="M 0 720 
L 2160 720 
L 2160 0 
L 0 0 
z
" style="fill:none;"/>
  </g>
  <g id="axes_1">
   <g id="patch_2">
    <path d="M 270 630 
L 762.352941 630 
L 762.352941 86.4 
L 270 86.4 
z
" style="fill:#ffffff;"/>
   </g>
   <g id="matplotlib.axis_1">
    <g id="xtick_1">
     <g id="line2d_1">
      <defs>
       <path d="M 0 0 
L 0 3.5 
" id="m55ec8ec78c" style="stroke:#000000;stroke-width:0.8;"/>
      </defs>
      <g>
       <use style="stroke:#000000;stroke-width:0.8;" x="292.379679" xlink:href="#m55ec8ec78c" y="630"/>
      </g>
     </g>
     <g id="text_1">
      <!-- $\mathdefault{10^{2}}$ -->
      <g transform="translate(283.579679 644.598438)scale(0.1 -0.1)">
       <defs>
        <path d="M 794 531 
L 1825 531 
L 1825 4091 
L 703 3866 
L 703 4441 
L 1819 4666 
L 2450 4666 
L 2450 531 
L 3481 531 
L 3481 0 
L 794 0 
L 794 531 
z
" id="DejaVuSans-31" transform="scale(0.015625)"/>
        <path d="M 2034 4250 
Q 1547 4250 1301 3770 
Q 1056 3291 1056 2328 
Q 1056 1369 1301 889 
Q 1547 409 2034 409 
Q 2525 409 2770 889 
Q 3016 1369 3016 2328 
Q 3016 3291 2770 3770 
Q 2525 4250 2034 4250 
z
M 2034 4750 
Q 2819 4750 3233 4129 
Q 3647 3509 3647 2328 
Q 3647 1150 3233 529 
Q 2819 -91 2034 -91 
Q 1250 -91 836 529 
Q 422 1150 422 2328 
Q 422 3509 836 4129 
Q 1250 4750 2034 4750 
z
" id="DejaVuSans-30" transform="scale(0.015625)"/>
        <path d="M 1228 531 
L 3431 531 
L 3431 0 
L 469 0 
L 469 531 
Q 828 903 1448 1529 
Q 2069 2156 2228 2338 
Q 2531 2678 2651 2914 
Q 2772 3150 2772 3378 
Q 2772 3750 2511 3984 
Q 2250 4219 1831 4219 
Q 1534 4219 1204 4116 
Q 875 4013 500 3803 
L 500 4441 
Q 881 4594 1212 4672 
Q 1544 4750 1819 4750 
Q 2544 4750 2975 4387 
Q 3406 4025 3406 3419 
Q 3406 3131 3298 2873 
Q 3191 2616 2906 2266 
Q 2828 2175 2409 1742 
Q 1991 1309 1228 531 
z
" id="DejaVuSans-32" transform="scale(0.015625)"/>
       </defs>
       <use transform="translate(0 0.765625)" xlink:href="#DejaVuSans-31"/>
       <use transform="translate(63.623047 0.765625)" xlink:href="#DejaVuSans-30"/>
       <use transform="translate(128.203125 39.046875)scale(0.7)" xlink:href="#DejaVuSans-32"/>
      </g>
     </g>
    </g>
    <g id="xtick_2">
     <g id="line2d_2">
      <g>
       <use style="stroke:#000000;stroke-width:0.8;" x="516.176471" xlink:href="#m55ec8ec78c" y="630"/>
      </g>
     </g>
     <g id="text_2">
      <!-- $\mathdefault{10^{3}}$ -->
      <g transform="translate(507.376471 644.598438)scale(0.1 -0.1)">
       <defs>
        <path d="M 2597 2516 
Q 3050 2419 3304 2112 
Q 3559 1806 3559 1356 
Q 3559 666 3084 287 
Q 2609 -91 1734 -91 
Q 1441 -91 1130 -33 
Q 819 25 488 141 
L 488 750 
Q 750 597 1062 519 
Q 1375 441 1716 441 
Q 2309 441 2620 675 
Q 2931 909 2931 1356 
Q 2931 1769 2642 2001 
Q 2353 2234 1838 2234 
L 1294 2234 
L 1294 2753 
L 1863 2753 
Q 2328 2753 2575 2939 
Q 2822 3125 2822 3475 
Q 2822 3834 2567 4026 
Q 2313 4219 1838 4219 
Q 1578 4219 1281 4162 
Q 984 4106 628 3988 
L 628 4550 
Q 988 4650 1302 4700 
Q 1616 4750 1894 4750 
Q 2613 4750 3031 4423 
Q 3450 4097 3450 3541 
Q 3450 3153 3228 2886 
Q 3006 2619 2597 2516 
z
" id="DejaVuSans-33" transform="scale(0.015625)"/>
       </defs>
       <use transform="translate(0 0.765625)" xlink:href="#DejaVuSans-31"/>
       <use transform="translate(63.623047 0.765625)" xlink:href="#DejaVuSans-30"/>
       <use transform="translate(128.203125 39.046875)scale(0.7)" xlink:href="#DejaVuSans-33"/>
      </g>
     </g>
    </g>
    <g id="xtick_3">
     <g id="line2d_3">
      <g>
       <use style="stroke:#000000;stroke-width:0.8;" x="739.973262" xlink:href="#m55ec8ec78c" y="630"/>
      </g>
     </g>
     <g id="text_3">
      <!-- $\mathdefault{10^{4}}$ -->
      <g transform="translate(731.173262 644.598438)scale(0.1 -0.1)">
       <defs>
        <path d="M 2419 4116 
L 825 1625 
L 2419 1625 
L 2419 4116 
z
M 2253 4666 
L 3047 4666 
L 3047 1625 
L 3713 1625 
L 3713 1100 
L 3047 1100 
L 3047 0 
L 2419 0 
L 2419 1100 
L 313 1100 
L 313 1709 
L 2253 4666 
z
" id="DejaVuSans-34" transform="scale(0.015625)"/>
       </defs>
       <use transform="translate(0 0.684375)" xlink:href="#DejaVuSans-31"/>
       <use transform="translate(63.623047 0.684375)" xlink:href="#DejaVuSans-30"/>
       <use transform="translate(128.203125 38.965625)scale(0.7)" xlink:href="#DejaVuSans-34"/>
      </g>
     </g>
    </g>
    <g id="xtick_4">
     <g id="line2d_4">
      <defs>
       <path d="M 0 0 
L 0 2 
" id="md94293f4b9" style="stroke:#000000;stroke-width:0.6;"/>
      </defs>
      <g>
       <use style="stroke:#000000;stroke-width:0.6;" x="270.691529" xlink:href="#md94293f4b9" y="630"/>
      </g>
     </g>
    </g>
    <g id="xtick_5">
     <g id="line2d_5">
      <g>
       <use style="stroke:#000000;stroke-width:0.6;" x="282.1393" xlink:href="#md94293f4b9" y="630"/>
      </g>
     </g>
    </g>
    <g id="xtick_6">
     <g id="line2d_6">
      <g>
       <use style="stroke:#000000;stroke-width:0.6;" x="359.749226" xlink:href="#md94293f4b9" y="630"/>
      </g>
     </g>
    </g>
    <g id="xtick_7">
     <g id="line2d_7">
      <g>
       <use style="stroke:#000000;stroke-width:0.6;" x="399.157885" xlink:href="#md94293f4b9" y="630"/>
      </g>
     </g>
    </g>
    <g id="xtick_8">
     <g id="line2d_8">
      <g>
       <use style="stroke:#000000;stroke-width:0.6;" x="427.118773" xlink:href="#md94293f4b9" y="630"/>
      </g>
     </g>
    </g>
    <g id="xtick_9">
     <g id="line2d_9">
      <g>
       <use style="stroke:#000000;stroke-width:0.6;" x="448.806923" xlink:href="#md94293f4b9" y="630"/>
      </g>
     </g>
    </g>
    <g id="xtick_10">
     <g id="line2d_10">
      <g>
       <use style="stroke:#000000;stroke-width:0.6;" x="466.527432" xlink:href="#md94293f4b9" y="630"/>
      </g>
     </g>
    </g>
    <g id="xtick_11">
     <g id="line2d_11">
      <g>
       <use style="stroke:#000000;stroke-width:0.6;" x="481.509909" xlink:href="#md94293f4b9" y="630"/>
      </g>
     </g>
    </g>
    <g id="xtick_12">
     <g id="line2d_12">
      <g>
       <use style="stroke:#000000;stroke-width:0.6;" x="494.488321" xlink:href="#md94293f4b9" y="630"/>
      </g>
     </g>
    </g>
    <g id="xtick_13">
     <g id="line2d_13">
      <g>
       <use style="stroke:#000000;stroke-width:0.6;" x="505.936091" xlink:href="#md94293f4b9" y="630"/>
      </g>
     </g>
    </g>
    <g id="xtick_14">
     <g id="line2d_14">
      <g>
       <use style="stroke:#000000;stroke-width:0.6;" x="583.546018" xlink:href="#md94293f4b9" y="630"/>
      </g>
     </g>
    </g>
    <g id="xtick_15">
     <g id="line2d_15">
      <g>
       <use style="stroke:#000000;stroke-width:0.6;" x="622.954677" xlink:href="#md94293f4b9" y="630"/>
      </g>
     </g>
    </g>
    <g id="xtick_16">
     <g id="line2d_16">
      <g>
       <use style="stroke:#000000;stroke-width:0.6;" x="650.915565" xlink:href="#md94293f4b9" y="630"/>
      </g>
     </g>
    </g>
    <g id="xtick_17">
     <g id="line2d_17">
      <g>
       <use style="stroke:#000000;stroke-width:0.6;" x="672.603715" xlink:href="#md94293f4b9" y="630"/>
      </g>
     </g>
    </g>
    <g id="xtick_18">
     <g id="line2d_18">
      <g>
       <use style="stroke:#000000;stroke-width:0.6;" x="690.324224" xlink:href="#md94293f4b9" y="630"/>
      </g>
     </g>
    </g>
    <g id="xtick_19">
     <g id="line2d_19">
      <g>
       <use style="stroke:#000000;stroke-width:0.6;" x="705.3067" xlink:href="#md94293f4b9" y="630"/>
      </g>
     </g>
    </g>
    <g id="xtick_20">
     <g id="line2d_20">
      <g>
       <use style="stroke:#000000;stroke-width:0.6;" x="718.285112" xlink:href="#md94293f4b9" y="630"/>
      </g>
     </g>
    </g>
    <g id="xtick_21">
     <g id="line2d_21">
      <g>
       <use style="stroke:#000000;stroke-width:0.6;" x="729.732882" xlink:href="#md94293f4b9" y="630"/>
      </g>
     </g>
    </g>
    <g id="text_4">
     <!-- Sample size -->
     <g transform="translate(474.131627 661.315938)scale(0.14 -0.14)">
      <defs>
       <path d="M 3425 4513 
L 3425 3897 
Q 3066 4069 2747 4153 
Q 2428 4238 2131 4238 
Q 1616 4238 1336 4038 
Q 1056 3838 1056 3469 
Q 1056 3159 1242 3001 
Q 1428 2844 1947 2747 
L 2328 2669 
Q 3034 2534 3370 2195 
Q 3706 1856 3706 1288 
Q 3706 609 3251 259 
Q 2797 -91 1919 -91 
Q 1588 -91 1214 -16 
Q 841 59 441 206 
L 441 856 
Q 825 641 1194 531 
Q 1563 422 1919 422 
Q 2459 422 2753 634 
Q 3047 847 3047 1241 
Q 3047 1584 2836 1778 
Q 2625 1972 2144 2069 
L 1759 2144 
Q 1053 2284 737 2584 
Q 422 2884 422 3419 
Q 422 4038 858 4394 
Q 1294 4750 2059 4750 
Q 2388 4750 2728 4690 
Q 3069 4631 3425 4513 
z
" id="DejaVuSans-53" transform="scale(0.015625)"/>
       <path d="M 2194 1759 
Q 1497 1759 1228 1600 
Q 959 1441 959 1056 
Q 959 750 1161 570 
Q 1363 391 1709 391 
Q 2188 391 2477 730 
Q 2766 1069 2766 1631 
L 2766 1759 
L 2194 1759 
z
M 3341 1997 
L 3341 0 
L 2766 0 
L 2766 531 
Q 2569 213 2275 61 
Q 1981 -91 1556 -91 
Q 1019 -91 701 211 
Q 384 513 384 1019 
Q 384 1609 779 1909 
Q 1175 2209 1959 2209 
L 2766 2209 
L 2766 2266 
Q 2766 2663 2505 2880 
Q 2244 3097 1772 3097 
Q 1472 3097 1187 3025 
Q 903 2953 641 2809 
L 641 3341 
Q 956 3463 1253 3523 
Q 1550 3584 1831 3584 
Q 2591 3584 2966 3190 
Q 3341 2797 3341 1997 
z
" id="DejaVuSans-61" transform="scale(0.015625)"/>
       <path d="M 3328 2828 
Q 3544 3216 3844 3400 
Q 4144 3584 4550 3584 
Q 5097 3584 5394 3201 
Q 5691 2819 5691 2113 
L 5691 0 
L 5113 0 
L 5113 2094 
Q 5113 2597 4934 2840 
Q 4756 3084 4391 3084 
Q 3944 3084 3684 2787 
Q 3425 2491 3425 1978 
L 3425 0 
L 2847 0 
L 2847 2094 
Q 2847 2600 2669 2842 
Q 2491 3084 2119 3084 
Q 1678 3084 1418 2786 
Q 1159 2488 1159 1978 
L 1159 0 
L 581 0 
L 581 3500 
L 1159 3500 
L 1159 2956 
Q 1356 3278 1631 3431 
Q 1906 3584 2284 3584 
Q 2666 3584 2933 3390 
Q 3200 3197 3328 2828 
z
" id="DejaVuSans-6d" transform="scale(0.015625)"/>
       <path d="M 1159 525 
L 1159 -1331 
L 581 -1331 
L 581 3500 
L 1159 3500 
L 1159 2969 
Q 1341 3281 1617 3432 
Q 1894 3584 2278 3584 
Q 2916 3584 3314 3078 
Q 3713 2572 3713 1747 
Q 3713 922 3314 415 
Q 2916 -91 2278 -91 
Q 1894 -91 1617 61 
Q 1341 213 1159 525 
z
M 3116 1747 
Q 3116 2381 2855 2742 
Q 2594 3103 2138 3103 
Q 1681 3103 1420 2742 
Q 1159 2381 1159 1747 
Q 1159 1113 1420 752 
Q 1681 391 2138 391 
Q 2594 391 2855 752 
Q 3116 1113 3116 1747 
z
" id="DejaVuSans-70" transform="scale(0.015625)"/>
       <path d="M 603 4863 
L 1178 4863 
L 1178 0 
L 603 0 
L 603 4863 
z
" id="DejaVuSans-6c" transform="scale(0.015625)"/>
       <path d="M 3597 1894 
L 3597 1613 
L 953 1613 
Q 991 1019 1311 708 
Q 1631 397 2203 397 
Q 2534 397 2845 478 
Q 3156 559 3463 722 
L 3463 178 
Q 3153 47 2828 -22 
Q 2503 -91 2169 -91 
Q 1331 -91 842 396 
Q 353 884 353 1716 
Q 353 2575 817 3079 
Q 1281 3584 2069 3584 
Q 2775 3584 3186 3129 
Q 3597 2675 3597 1894 
z
M 3022 2063 
Q 3016 2534 2758 2815 
Q 2500 3097 2075 3097 
Q 1594 3097 1305 2825 
Q 1016 2553 972 2059 
L 3022 2063 
z
" id="DejaVuSans-65" transform="scale(0.015625)"/>
       <path id="DejaVuSans-20" transform="scale(0.015625)"/>
       <path d="M 2834 3397 
L 2834 2853 
Q 2591 2978 2328 3040 
Q 2066 3103 1784 3103 
Q 1356 3103 1142 2972 
Q 928 2841 928 2578 
Q 928 2378 1081 2264 
Q 1234 2150 1697 2047 
L 1894 2003 
Q 2506 1872 2764 1633 
Q 3022 1394 3022 966 
Q 3022 478 2636 193 
Q 2250 -91 1575 -91 
Q 1294 -91 989 -36 
Q 684 19 347 128 
L 347 722 
Q 666 556 975 473 
Q 1284 391 1588 391 
Q 1994 391 2212 530 
Q 2431 669 2431 922 
Q 2431 1156 2273 1281 
Q 2116 1406 1581 1522 
L 1381 1569 
Q 847 1681 609 1914 
Q 372 2147 372 2553 
Q 372 3047 722 3315 
Q 1072 3584 1716 3584 
Q 2034 3584 2315 3537 
Q 2597 3491 2834 3397 
z
" id="DejaVuSans-73" transform="scale(0.015625)"/>
       <path d="M 603 3500 
L 1178 3500 
L 1178 0 
L 603 0 
L 603 3500 
z
M 603 4863 
L 1178 4863 
L 1178 4134 
L 603 4134 
L 603 4863 
z
" id="DejaVuSans-69" transform="scale(0.015625)"/>
       <path d="M 353 3500 
L 3084 3500 
L 3084 2975 
L 922 459 
L 3084 459 
L 3084 0 
L 275 0 
L 275 525 
L 2438 3041 
L 353 3041 
L 353 3500 
z
" id="DejaVuSans-7a" transform="scale(0.015625)"/>
      </defs>
      <use xlink:href="#DejaVuSans-53"/>
      <use x="63.476562" xlink:href="#DejaVuSans-61"/>
      <use x="124.755859" xlink:href="#DejaVuSans-6d"/>
      <use x="222.167969" xlink:href="#DejaVuSans-70"/>
      <use x="285.644531" xlink:href="#DejaVuSans-6c"/>
      <use x="313.427734" xlink:href="#DejaVuSans-65"/>
      <use x="374.951172" xlink:href="#DejaVuSans-20"/>
      <use x="406.738281" xlink:href="#DejaVuSans-73"/>
      <use x="458.837891" xlink:href="#DejaVuSans-69"/>
      <use x="486.621094" xlink:href="#DejaVuSans-7a"/>
      <use x="539.111328" xlink:href="#DejaVuSans-65"/>
     </g>
    </g>
   </g>
   <g id="matplotlib.axis_2">
    <g id="ytick_1">
     <g id="line2d_22">
      <defs>
       <path d="M 0 0 
L -3.5 0 
" id="m4ff9dd344d" style="stroke:#000000;stroke-width:0.8;"/>
      </defs>
      <g>
       <use style="stroke:#000000;stroke-width:0.8;" x="270" xlink:href="#m4ff9dd344d" y="605.856764"/>
      </g>
     </g>
     <g id="text_5">
      <!-- 2 -->
      <g transform="translate(256.6375 609.655982)scale(0.1 -0.1)">
       <use xlink:href="#DejaVuSans-32"/>
      </g>
     </g>
    </g>
    <g id="ytick_2">
     <g id="line2d_23">
      <g>
       <use style="stroke:#000000;stroke-width:0.8;" x="270" xlink:href="#m4ff9dd344d" y="535.129947"/>
      </g>
     </g>
     <g id="text_6">
      <!-- 3 -->
      <g transform="translate(256.6375 538.929166)scale(0.1 -0.1)">
       <use xlink:href="#DejaVuSans-33"/>
      </g>
     </g>
    </g>
    <g id="ytick_3">
     <g id="line2d_24">
      <g>
       <use style="stroke:#000000;stroke-width:0.8;" x="270" xlink:href="#m4ff9dd344d" y="464.403131"/>
      </g>
     </g>
     <g id="text_7">
      <!-- 4 -->
      <g transform="translate(256.6375 468.20235)scale(0.1 -0.1)">
       <use xlink:href="#DejaVuSans-34"/>
      </g>
     </g>
    </g>
    <g id="ytick_4">
     <g id="line2d_25">
      <g>
       <use style="stroke:#000000;stroke-width:0.8;" x="270" xlink:href="#m4ff9dd344d" y="393.676315"/>
      </g>
     </g>
     <g id="text_8">
      <!-- 5 -->
      <g transform="translate(256.6375 397.475534)scale(0.1 -0.1)">
       <defs>
        <path d="M 691 4666 
L 3169 4666 
L 3169 4134 
L 1269 4134 
L 1269 2991 
Q 1406 3038 1543 3061 
Q 1681 3084 1819 3084 
Q 2600 3084 3056 2656 
Q 3513 2228 3513 1497 
Q 3513 744 3044 326 
Q 2575 -91 1722 -91 
Q 1428 -91 1123 -41 
Q 819 9 494 109 
L 494 744 
Q 775 591 1075 516 
Q 1375 441 1709 441 
Q 2250 441 2565 725 
Q 2881 1009 2881 1497 
Q 2881 1984 2565 2268 
Q 2250 2553 1709 2553 
Q 1456 2553 1204 2497 
Q 953 2441 691 2322 
L 691 4666 
z
" id="DejaVuSans-35" transform="scale(0.015625)"/>
       </defs>
       <use xlink:href="#DejaVuSans-35"/>
      </g>
     </g>
    </g>
    <g id="ytick_5">
     <g id="line2d_26">
      <g>
       <use style="stroke:#000000;stroke-width:0.8;" x="270" xlink:href="#m4ff9dd344d" y="322.949499"/>
      </g>
     </g>
     <g id="text_9">
      <!-- 6 -->
      <g transform="translate(256.6375 326.748718)scale(0.1 -0.1)">
       <defs>
        <path d="M 2113 2584 
Q 1688 2584 1439 2293 
Q 1191 2003 1191 1497 
Q 1191 994 1439 701 
Q 1688 409 2113 409 
Q 2538 409 2786 701 
Q 3034 994 3034 1497 
Q 3034 2003 2786 2293 
Q 2538 2584 2113 2584 
z
M 3366 4563 
L 3366 3988 
Q 3128 4100 2886 4159 
Q 2644 4219 2406 4219 
Q 1781 4219 1451 3797 
Q 1122 3375 1075 2522 
Q 1259 2794 1537 2939 
Q 1816 3084 2150 3084 
Q 2853 3084 3261 2657 
Q 3669 2231 3669 1497 
Q 3669 778 3244 343 
Q 2819 -91 2113 -91 
Q 1303 -91 875 529 
Q 447 1150 447 2328 
Q 447 3434 972 4092 
Q 1497 4750 2381 4750 
Q 2619 4750 2861 4703 
Q 3103 4656 3366 4563 
z
" id="DejaVuSans-36" transform="scale(0.015625)"/>
       </defs>
       <use xlink:href="#DejaVuSans-36"/>
      </g>
     </g>
    </g>
    <g id="ytick_6">
     <g id="line2d_27">
      <g>
       <use style="stroke:#000000;stroke-width:0.8;" x="270" xlink:href="#m4ff9dd344d" y="252.222683"/>
      </g>
     </g>
     <g id="text_10">
      <!-- 7 -->
      <g transform="translate(256.6375 256.021902)scale(0.1 -0.1)">
       <defs>
        <path d="M 525 4666 
L 3525 4666 
L 3525 4397 
L 1831 0 
L 1172 0 
L 2766 4134 
L 525 4134 
L 525 4666 
z
" id="DejaVuSans-37" transform="scale(0.015625)"/>
       </defs>
       <use xlink:href="#DejaVuSans-37"/>
      </g>
     </g>
    </g>
    <g id="ytick_7">
     <g id="line2d_28">
      <g>
       <use style="stroke:#000000;stroke-width:0.8;" x="270" xlink:href="#m4ff9dd344d" y="181.495867"/>
      </g>
     </g>
     <g id="text_11">
      <!-- 8 -->
      <g transform="translate(256.6375 185.295086)scale(0.1 -0.1)">
       <defs>
        <path d="M 2034 2216 
Q 1584 2216 1326 1975 
Q 1069 1734 1069 1313 
Q 1069 891 1326 650 
Q 1584 409 2034 409 
Q 2484 409 2743 651 
Q 3003 894 3003 1313 
Q 3003 1734 2745 1975 
Q 2488 2216 2034 2216 
z
M 1403 2484 
Q 997 2584 770 2862 
Q 544 3141 544 3541 
Q 544 4100 942 4425 
Q 1341 4750 2034 4750 
Q 2731 4750 3128 4425 
Q 3525 4100 3525 3541 
Q 3525 3141 3298 2862 
Q 3072 2584 2669 2484 
Q 3125 2378 3379 2068 
Q 3634 1759 3634 1313 
Q 3634 634 3220 271 
Q 2806 -91 2034 -91 
Q 1263 -91 848 271 
Q 434 634 434 1313 
Q 434 1759 690 2068 
Q 947 2378 1403 2484 
z
M 1172 3481 
Q 1172 3119 1398 2916 
Q 1625 2713 2034 2713 
Q 2441 2713 2670 2916 
Q 2900 3119 2900 3481 
Q 2900 3844 2670 4047 
Q 2441 4250 2034 4250 
Q 1625 4250 1398 4047 
Q 1172 3844 1172 3481 
z
" id="DejaVuSans-38" transform="scale(0.015625)"/>
       </defs>
       <use xlink:href="#DejaVuSans-38"/>
      </g>
     </g>
    </g>
    <g id="ytick_8">
     <g id="line2d_29">
      <g>
       <use style="stroke:#000000;stroke-width:0.8;" x="270" xlink:href="#m4ff9dd344d" y="110.769051"/>
      </g>
     </g>
     <g id="text_12">
      <!-- 9 -->
      <g transform="translate(256.6375 114.568269)scale(0.1 -0.1)">
       <defs>
        <path d="M 703 97 
L 703 672 
Q 941 559 1184 500 
Q 1428 441 1663 441 
Q 2288 441 2617 861 
Q 2947 1281 2994 2138 
Q 2813 1869 2534 1725 
Q 2256 1581 1919 1581 
Q 1219 1581 811 2004 
Q 403 2428 403 3163 
Q 403 3881 828 4315 
Q 1253 4750 1959 4750 
Q 2769 4750 3195 4129 
Q 3622 3509 3622 2328 
Q 3622 1225 3098 567 
Q 2575 -91 1691 -91 
Q 1453 -91 1209 -44 
Q 966 3 703 97 
z
M 1959 2075 
Q 2384 2075 2632 2365 
Q 2881 2656 2881 3163 
Q 2881 3666 2632 3958 
Q 2384 4250 1959 4250 
Q 1534 4250 1286 3958 
Q 1038 3666 1038 3163 
Q 1038 2656 1286 2365 
Q 1534 2075 1959 2075 
z
" id="DejaVuSans-39" transform="scale(0.015625)"/>
       </defs>
       <use xlink:href="#DejaVuSans-39"/>
      </g>
     </g>
    </g>
    <g id="text_13">
     <!-- RMSE -->
     <g transform="translate(249.725937 377.970625)rotate(-90)scale(0.14 -0.14)">
      <defs>
       <path d="M 2841 2188 
Q 3044 2119 3236 1894 
Q 3428 1669 3622 1275 
L 4263 0 
L 3584 0 
L 2988 1197 
Q 2756 1666 2539 1819 
Q 2322 1972 1947 1972 
L 1259 1972 
L 1259 0 
L 628 0 
L 628 4666 
L 2053 4666 
Q 2853 4666 3247 4331 
Q 3641 3997 3641 3322 
Q 3641 2881 3436 2590 
Q 3231 2300 2841 2188 
z
M 1259 4147 
L 1259 2491 
L 2053 2491 
Q 2509 2491 2742 2702 
Q 2975 2913 2975 3322 
Q 2975 3731 2742 3939 
Q 2509 4147 2053 4147 
L 1259 4147 
z
" id="DejaVuSans-52" transform="scale(0.015625)"/>
       <path d="M 628 4666 
L 1569 4666 
L 2759 1491 
L 3956 4666 
L 4897 4666 
L 4897 0 
L 4281 0 
L 4281 4097 
L 3078 897 
L 2444 897 
L 1241 4097 
L 1241 0 
L 628 0 
L 628 4666 
z
" id="DejaVuSans-4d" transform="scale(0.015625)"/>
       <path d="M 628 4666 
L 3578 4666 
L 3578 4134 
L 1259 4134 
L 1259 2753 
L 3481 2753 
L 3481 2222 
L 1259 2222 
L 1259 531 
L 3634 531 
L 3634 0 
L 628 0 
L 628 4666 
z
" id="DejaVuSans-45" transform="scale(0.015625)"/>
      </defs>
      <use xlink:href="#DejaVuSans-52"/>
      <use x="69.482422" xlink:href="#DejaVuSans-4d"/>
      <use x="155.761719" xlink:href="#DejaVuSans-53"/>
      <use x="219.238281" xlink:href="#DejaVuSans-45"/>
     </g>
    </g>
   </g>
   <g id="line2d_30">
    <path clip-path="url(#p58756fb7e9)" d="M 292.379679 541.62465 
L 307.639456 536.551935 
L 322.977303 518.494355 
L 338.666647 342.202577 
L 353.735326 304.57308 
L 369.453565 434.87813 
L 384.87484 520.978344 
L 400.124995 384.087829 
L 415.792419 379.879383 
L 431.164139 455.875577 
L 446.64479 528.781947 
L 462.052251 467.637228 
L 477.542268 577.146509 
L 493.01937 593.356318 
L 508.388723 444.795049 
L 523.836422 439.498176 
L 539.254229 527.580301 
L 554.739112 589.011486 
L 570.178052 410.081259 
L 585.613536 460.436392 
L 601.063828 535.658755 
L 616.491684 550.930046 
L 631.923253 528.02107 
L 647.352056 477.973787 
L 662.79435 408.908698 
L 678.230403 428.407846 
L 693.667826 487.819757 
L 709.092002 529.322999 
L 724.53127 405.739172 
L 739.973262 415.868937 
" style="fill:none;stroke:#1f77b4;stroke-linecap:square;stroke-width:1.5;"/>
   </g>
   <g id="line2d_31">
    <path clip-path="url(#p58756fb7e9)" d="M 292.379679 213.305763 
L 307.639456 111.109091 
L 322.977303 262.051393 
L 338.666647 269.071931 
L 353.735326 297.512369 
L 369.453565 195.522721 
L 384.87484 239.863586 
L 400.124995 192.794432 
L 415.792419 334.501554 
L 431.164139 304.251676 
L 446.64479 155.57379 
L 462.052251 374.910255 
L 477.542268 181.739716 
L 493.01937 395.460059 
L 508.388723 304.106625 
L 523.836422 403.148829 
L 539.254229 348.240888 
L 554.739112 329.975861 
L 570.178052 343.112814 
L 585.613536 373.327978 
L 601.063828 283.46491 
L 616.491684 366.692746 
L 631.923253 367.702588 
L 647.352056 407.144927 
L 662.79435 359.617445 
L 678.230403 364.556428 
L 693.667826 402.914487 
L 709.092002 344.513876 
L 724.53127 485.310965 
L 739.973262 469.079607 
" style="fill:none;stroke:#ff7f0e;stroke-linecap:square;stroke-width:1.5;"/>
   </g>
   <g id="line2d_32">
    <path clip-path="url(#p58756fb7e9)" d="M 292.379679 462.637432 
L 307.639456 243.357982 
L 322.977303 404.584084 
L 338.666647 384.922233 
L 353.735326 320.654812 
L 369.453565 418.257774 
L 384.87484 368.540253 
L 400.124995 313.646493 
L 415.792419 356.266777 
L 431.164139 500.160105 
L 446.64479 340.791278 
L 462.052251 466.079945 
L 477.542268 318.922796 
L 493.01937 428.311822 
L 508.388723 368.260925 
L 523.836422 600.524042 
L 539.254229 432.301381 
L 554.739112 555.199566 
L 570.178052 433.852119 
L 585.613536 588.913065 
L 601.063828 516.017617 
L 616.491684 293.502599 
L 631.923253 460.707369 
L 647.352056 605.290909 
L 662.79435 556.070311 
L 678.230403 574.739141 
L 693.667826 328.96137 
L 709.092002 538.560426 
L 724.53127 485.638202 
L 739.973262 511.015793 
" style="fill:none;stroke:#2ca02c;stroke-linecap:square;stroke-width:1.5;"/>
   </g>
   <g id="patch_3">
    <path d="M 270 630 
L 270 86.4 
" style="fill:none;stroke:#000000;stroke-linecap:square;stroke-linejoin:miter;stroke-width:0.8;"/>
   </g>
   <g id="patch_4">
    <path d="M 762.352941 630 
L 762.352941 86.4 
" style="fill:none;stroke:#000000;stroke-linecap:square;stroke-linejoin:miter;stroke-width:0.8;"/>
   </g>
   <g id="patch_5">
    <path d="M 270 630 
L 762.352941 630 
" style="fill:none;stroke:#000000;stroke-linecap:square;stroke-linejoin:miter;stroke-width:0.8;"/>
   </g>
   <g id="patch_6">
    <path d="M 270 86.4 
L 762.352941 86.4 
" style="fill:none;stroke:#000000;stroke-linecap:square;stroke-linejoin:miter;stroke-width:0.8;"/>
   </g>
   <g id="text_14">
    <!-- Component means -->
    <g transform="translate(449.813189 80.4)scale(0.14 -0.14)">
     <defs>
      <path d="M 4122 4306 
L 4122 3641 
Q 3803 3938 3442 4084 
Q 3081 4231 2675 4231 
Q 1875 4231 1450 3742 
Q 1025 3253 1025 2328 
Q 1025 1406 1450 917 
Q 1875 428 2675 428 
Q 3081 428 3442 575 
Q 3803 722 4122 1019 
L 4122 359 
Q 3791 134 3420 21 
Q 3050 -91 2638 -91 
Q 1578 -91 968 557 
Q 359 1206 359 2328 
Q 359 3453 968 4101 
Q 1578 4750 2638 4750 
Q 3056 4750 3426 4639 
Q 3797 4528 4122 4306 
z
" id="DejaVuSans-43" transform="scale(0.015625)"/>
      <path d="M 1959 3097 
Q 1497 3097 1228 2736 
Q 959 2375 959 1747 
Q 959 1119 1226 758 
Q 1494 397 1959 397 
Q 2419 397 2687 759 
Q 2956 1122 2956 1747 
Q 2956 2369 2687 2733 
Q 2419 3097 1959 3097 
z
M 1959 3584 
Q 2709 3584 3137 3096 
Q 3566 2609 3566 1747 
Q 3566 888 3137 398 
Q 2709 -91 1959 -91 
Q 1206 -91 779 398 
Q 353 888 353 1747 
Q 353 2609 779 3096 
Q 1206 3584 1959 3584 
z
" id="DejaVuSans-6f" transform="scale(0.015625)"/>
      <path d="M 3513 2113 
L 3513 0 
L 2938 0 
L 2938 2094 
Q 2938 2591 2744 2837 
Q 2550 3084 2163 3084 
Q 1697 3084 1428 2787 
Q 1159 2491 1159 1978 
L 1159 0 
L 581 0 
L 581 3500 
L 1159 3500 
L 1159 2956 
Q 1366 3272 1645 3428 
Q 1925 3584 2291 3584 
Q 2894 3584 3203 3211 
Q 3513 2838 3513 2113 
z
" id="DejaVuSans-6e" transform="scale(0.015625)"/>
      <path d="M 1172 4494 
L 1172 3500 
L 2356 3500 
L 2356 3053 
L 1172 3053 
L 1172 1153 
Q 1172 725 1289 603 
Q 1406 481 1766 481 
L 2356 481 
L 2356 0 
L 1766 0 
Q 1100 0 847 248 
Q 594 497 594 1153 
L 594 3053 
L 172 3053 
L 172 3500 
L 594 3500 
L 594 4494 
L 1172 4494 
z
" id="DejaVuSans-74" transform="scale(0.015625)"/>
     </defs>
     <use xlink:href="#DejaVuSans-43"/>
     <use x="69.824219" xlink:href="#DejaVuSans-6f"/>
     <use x="131.005859" xlink:href="#DejaVuSans-6d"/>
     <use x="228.417969" xlink:href="#DejaVuSans-70"/>
     <use x="291.894531" xlink:href="#DejaVuSans-6f"/>
     <use x="353.076172" xlink:href="#DejaVuSans-6e"/>
     <use x="416.455078" xlink:href="#DejaVuSans-65"/>
     <use x="477.978516" xlink:href="#DejaVuSans-6e"/>
     <use x="541.357422" xlink:href="#DejaVuSans-74"/>
     <use x="580.566406" xlink:href="#DejaVuSans-20"/>
     <use x="612.353516" xlink:href="#DejaVuSans-6d"/>
     <use x="709.765625" xlink:href="#DejaVuSans-65"/>
     <use x="771.289062" xlink:href="#DejaVuSans-61"/>
     <use x="832.568359" xlink:href="#DejaVuSans-6e"/>
     <use x="895.947266" xlink:href="#DejaVuSans-73"/>
    </g>
   </g>
   <g id="legend_1">
    <g id="patch_7">
     <path d="M 632.505129 159.248125 
L 752.552941 159.248125 
Q 755.352941 159.248125 755.352941 156.448125 
L 755.352941 96.2 
Q 755.352941 93.4 752.552941 93.4 
L 632.505129 93.4 
Q 629.705129 93.4 629.705129 96.2 
L 629.705129 156.448125 
Q 629.705129 159.248125 632.505129 159.248125 
z
" style="fill:#ffffff;opacity:0.8;stroke:#cccccc;stroke-linejoin:miter;"/>
    </g>
    <g id="line2d_33">
     <path d="M 635.305129 104.737812 
L 663.305129 104.737812 
" style="fill:none;stroke:#1f77b4;stroke-linecap:square;stroke-width:1.5;"/>
    </g>
    <g id="line2d_34"/>
    <g id="text_15">
     <!-- Non-DP -->
     <g transform="translate(674.505129 109.637812)scale(0.14 -0.14)">
      <defs>
       <path d="M 628 4666 
L 1478 4666 
L 3547 763 
L 3547 4666 
L 4159 4666 
L 4159 0 
L 3309 0 
L 1241 3903 
L 1241 0 
L 628 0 
L 628 4666 
z
" id="DejaVuSans-4e" transform="scale(0.015625)"/>
       <path d="M 313 2009 
L 1997 2009 
L 1997 1497 
L 313 1497 
L 313 2009 
z
" id="DejaVuSans-2d" transform="scale(0.015625)"/>
       <path d="M 1259 4147 
L 1259 519 
L 2022 519 
Q 2988 519 3436 956 
Q 3884 1394 3884 2338 
Q 3884 3275 3436 3711 
Q 2988 4147 2022 4147 
L 1259 4147 
z
M 628 4666 
L 1925 4666 
Q 3281 4666 3915 4102 
Q 4550 3538 4550 2338 
Q 4550 1131 3912 565 
Q 3275 0 1925 0 
L 628 0 
L 628 4666 
z
" id="DejaVuSans-44" transform="scale(0.015625)"/>
       <path d="M 1259 4147 
L 1259 2394 
L 2053 2394 
Q 2494 2394 2734 2622 
Q 2975 2850 2975 3272 
Q 2975 3691 2734 3919 
Q 2494 4147 2053 4147 
L 1259 4147 
z
M 628 4666 
L 2053 4666 
Q 2838 4666 3239 4311 
Q 3641 3956 3641 3272 
Q 3641 2581 3239 2228 
Q 2838 1875 2053 1875 
L 1259 1875 
L 1259 0 
L 628 0 
L 628 4666 
z
" id="DejaVuSans-50" transform="scale(0.015625)"/>
      </defs>
      <use xlink:href="#DejaVuSans-4e"/>
      <use x="74.804688" xlink:href="#DejaVuSans-6f"/>
      <use x="135.986328" xlink:href="#DejaVuSans-6e"/>
      <use x="199.365234" xlink:href="#DejaVuSans-2d"/>
      <use x="235.449219" xlink:href="#DejaVuSans-44"/>
      <use x="312.451172" xlink:href="#DejaVuSans-50"/>
     </g>
    </g>
    <g id="line2d_35">
     <path d="M 635.305129 125.287187 
L 663.305129 125.287187 
" style="fill:none;stroke:#ff7f0e;stroke-linecap:square;stroke-width:1.5;"/>
    </g>
    <g id="line2d_36"/>
    <g id="text_16">
     <!-- Central-DP -->
     <g transform="translate(674.505129 130.187187)scale(0.14 -0.14)">
      <defs>
       <path d="M 2631 2963 
Q 2534 3019 2420 3045 
Q 2306 3072 2169 3072 
Q 1681 3072 1420 2755 
Q 1159 2438 1159 1844 
L 1159 0 
L 581 0 
L 581 3500 
L 1159 3500 
L 1159 2956 
Q 1341 3275 1631 3429 
Q 1922 3584 2338 3584 
Q 2397 3584 2469 3576 
Q 2541 3569 2628 3553 
L 2631 2963 
z
" id="DejaVuSans-72" transform="scale(0.015625)"/>
      </defs>
      <use xlink:href="#DejaVuSans-43"/>
      <use x="69.824219" xlink:href="#DejaVuSans-65"/>
      <use x="131.347656" xlink:href="#DejaVuSans-6e"/>
      <use x="194.726562" xlink:href="#DejaVuSans-74"/>
      <use x="233.935547" xlink:href="#DejaVuSans-72"/>
      <use x="275.048828" xlink:href="#DejaVuSans-61"/>
      <use x="336.328125" xlink:href="#DejaVuSans-6c"/>
      <use x="364.111328" xlink:href="#DejaVuSans-2d"/>
      <use x="400.195312" xlink:href="#DejaVuSans-44"/>
      <use x="477.197266" xlink:href="#DejaVuSans-50"/>
     </g>
    </g>
    <g id="line2d_37">
     <path d="M 635.305129 145.836562 
L 663.305129 145.836562 
" style="fill:none;stroke:#2ca02c;stroke-linecap:square;stroke-width:1.5;"/>
    </g>
    <g id="line2d_38"/>
    <g id="text_17">
     <!-- Local-DP -->
     <g transform="translate(674.505129 150.736562)scale(0.14 -0.14)">
      <defs>
       <path d="M 628 4666 
L 1259 4666 
L 1259 531 
L 3531 531 
L 3531 0 
L 628 0 
L 628 4666 
z
" id="DejaVuSans-4c" transform="scale(0.015625)"/>
       <path d="M 3122 3366 
L 3122 2828 
Q 2878 2963 2633 3030 
Q 2388 3097 2138 3097 
Q 1578 3097 1268 2742 
Q 959 2388 959 1747 
Q 959 1106 1268 751 
Q 1578 397 2138 397 
Q 2388 397 2633 464 
Q 2878 531 3122 666 
L 3122 134 
Q 2881 22 2623 -34 
Q 2366 -91 2075 -91 
Q 1284 -91 818 406 
Q 353 903 353 1747 
Q 353 2603 823 3093 
Q 1294 3584 2113 3584 
Q 2378 3584 2631 3529 
Q 2884 3475 3122 3366 
z
" id="DejaVuSans-63" transform="scale(0.015625)"/>
      </defs>
      <use xlink:href="#DejaVuSans-4c"/>
      <use x="53.962891" xlink:href="#DejaVuSans-6f"/>
      <use x="115.144531" xlink:href="#DejaVuSans-63"/>
      <use x="170.125" xlink:href="#DejaVuSans-61"/>
      <use x="231.404297" xlink:href="#DejaVuSans-6c"/>
      <use x="259.1875" xlink:href="#DejaVuSans-2d"/>
      <use x="295.271484" xlink:href="#DejaVuSans-44"/>
      <use x="372.273438" xlink:href="#DejaVuSans-50"/>
     </g>
    </g>
   </g>
  </g>
  <g id="axes_2">
   <g id="patch_8">
    <path d="M 860.823529 630 
L 1353.176471 630 
L 1353.176471 86.4 
L 860.823529 86.4 
z
" style="fill:#ffffff;"/>
   </g>
   <g id="matplotlib.axis_3">
    <g id="xtick_22">
     <g id="line2d_39">
      <g>
       <use style="stroke:#000000;stroke-width:0.8;" x="883.203209" xlink:href="#m55ec8ec78c" y="630"/>
      </g>
     </g>
     <g id="text_18">
      <!-- $\mathdefault{10^{2}}$ -->
      <g transform="translate(874.403209 644.598438)scale(0.1 -0.1)">
       <use transform="translate(0 0.765625)" xlink:href="#DejaVuSans-31"/>
       <use transform="translate(63.623047 0.765625)" xlink:href="#DejaVuSans-30"/>
       <use transform="translate(128.203125 39.046875)scale(0.7)" xlink:href="#DejaVuSans-32"/>
      </g>
     </g>
    </g>
    <g id="xtick_23">
     <g id="line2d_40">
      <g>
       <use style="stroke:#000000;stroke-width:0.8;" x="1107" xlink:href="#m55ec8ec78c" y="630"/>
      </g>
     </g>
     <g id="text_19">
      <!-- $\mathdefault{10^{3}}$ -->
      <g transform="translate(1098.2 644.598438)scale(0.1 -0.1)">
       <use transform="translate(0 0.765625)" xlink:href="#DejaVuSans-31"/>
       <use transform="translate(63.623047 0.765625)" xlink:href="#DejaVuSans-30"/>
       <use transform="translate(128.203125 39.046875)scale(0.7)" xlink:href="#DejaVuSans-33"/>
      </g>
     </g>
    </g>
    <g id="xtick_24">
     <g id="line2d_41">
      <g>
       <use style="stroke:#000000;stroke-width:0.8;" x="1330.796791" xlink:href="#m55ec8ec78c" y="630"/>
      </g>
     </g>
     <g id="text_20">
      <!-- $\mathdefault{10^{4}}$ -->
      <g transform="translate(1321.996791 644.598438)scale(0.1 -0.1)">
       <use transform="translate(0 0.684375)" xlink:href="#DejaVuSans-31"/>
       <use transform="translate(63.623047 0.684375)" xlink:href="#DejaVuSans-30"/>
       <use transform="translate(128.203125 38.965625)scale(0.7)" xlink:href="#DejaVuSans-34"/>
      </g>
     </g>
    </g>
    <g id="xtick_25">
     <g id="line2d_42">
      <g>
       <use style="stroke:#000000;stroke-width:0.6;" x="861.515059" xlink:href="#md94293f4b9" y="630"/>
      </g>
     </g>
    </g>
    <g id="xtick_26">
     <g id="line2d_43">
      <g>
       <use style="stroke:#000000;stroke-width:0.6;" x="872.962829" xlink:href="#md94293f4b9" y="630"/>
      </g>
     </g>
    </g>
    <g id="xtick_27">
     <g id="line2d_44">
      <g>
       <use style="stroke:#000000;stroke-width:0.6;" x="950.572756" xlink:href="#md94293f4b9" y="630"/>
      </g>
     </g>
    </g>
    <g id="xtick_28">
     <g id="line2d_45">
      <g>
       <use style="stroke:#000000;stroke-width:0.6;" x="989.981414" xlink:href="#md94293f4b9" y="630"/>
      </g>
     </g>
    </g>
    <g id="xtick_29">
     <g id="line2d_46">
      <g>
       <use style="stroke:#000000;stroke-width:0.6;" x="1017.942303" xlink:href="#md94293f4b9" y="630"/>
      </g>
     </g>
    </g>
    <g id="xtick_30">
     <g id="line2d_47">
      <g>
       <use style="stroke:#000000;stroke-width:0.6;" x="1039.630453" xlink:href="#md94293f4b9" y="630"/>
      </g>
     </g>
    </g>
    <g id="xtick_31">
     <g id="line2d_48">
      <g>
       <use style="stroke:#000000;stroke-width:0.6;" x="1057.350962" xlink:href="#md94293f4b9" y="630"/>
      </g>
     </g>
    </g>
    <g id="xtick_32">
     <g id="line2d_49">
      <g>
       <use style="stroke:#000000;stroke-width:0.6;" x="1072.333438" xlink:href="#md94293f4b9" y="630"/>
      </g>
     </g>
    </g>
    <g id="xtick_33">
     <g id="line2d_50">
      <g>
       <use style="stroke:#000000;stroke-width:0.6;" x="1085.31185" xlink:href="#md94293f4b9" y="630"/>
      </g>
     </g>
    </g>
    <g id="xtick_34">
     <g id="line2d_51">
      <g>
       <use style="stroke:#000000;stroke-width:0.6;" x="1096.75962" xlink:href="#md94293f4b9" y="630"/>
      </g>
     </g>
    </g>
    <g id="xtick_35">
     <g id="line2d_52">
      <g>
       <use style="stroke:#000000;stroke-width:0.6;" x="1174.369547" xlink:href="#md94293f4b9" y="630"/>
      </g>
     </g>
    </g>
    <g id="xtick_36">
     <g id="line2d_53">
      <g>
       <use style="stroke:#000000;stroke-width:0.6;" x="1213.778206" xlink:href="#md94293f4b9" y="630"/>
      </g>
     </g>
    </g>
    <g id="xtick_37">
     <g id="line2d_54">
      <g>
       <use style="stroke:#000000;stroke-width:0.6;" x="1241.739094" xlink:href="#md94293f4b9" y="630"/>
      </g>
     </g>
    </g>
    <g id="xtick_38">
     <g id="line2d_55">
      <g>
       <use style="stroke:#000000;stroke-width:0.6;" x="1263.427244" xlink:href="#md94293f4b9" y="630"/>
      </g>
     </g>
    </g>
    <g id="xtick_39">
     <g id="line2d_56">
      <g>
       <use style="stroke:#000000;stroke-width:0.6;" x="1281.147753" xlink:href="#md94293f4b9" y="630"/>
      </g>
     </g>
    </g>
    <g id="xtick_40">
     <g id="line2d_57">
      <g>
       <use style="stroke:#000000;stroke-width:0.6;" x="1296.13023" xlink:href="#md94293f4b9" y="630"/>
      </g>
     </g>
    </g>
    <g id="xtick_41">
     <g id="line2d_58">
      <g>
       <use style="stroke:#000000;stroke-width:0.6;" x="1309.108641" xlink:href="#md94293f4b9" y="630"/>
      </g>
     </g>
    </g>
    <g id="xtick_42">
     <g id="line2d_59">
      <g>
       <use style="stroke:#000000;stroke-width:0.6;" x="1320.556412" xlink:href="#md94293f4b9" y="630"/>
      </g>
     </g>
    </g>
    <g id="text_21">
     <!-- Sample size -->
     <g transform="translate(1064.955156 661.315938)scale(0.14 -0.14)">
      <use xlink:href="#DejaVuSans-53"/>
      <use x="63.476562" xlink:href="#DejaVuSans-61"/>
      <use x="124.755859" xlink:href="#DejaVuSans-6d"/>
      <use x="222.167969" xlink:href="#DejaVuSans-70"/>
      <use x="285.644531" xlink:href="#DejaVuSans-6c"/>
      <use x="313.427734" xlink:href="#DejaVuSans-65"/>
      <use x="374.951172" xlink:href="#DejaVuSans-20"/>
      <use x="406.738281" xlink:href="#DejaVuSans-73"/>
      <use x="458.837891" xlink:href="#DejaVuSans-69"/>
      <use x="486.621094" xlink:href="#DejaVuSans-7a"/>
      <use x="539.111328" xlink:href="#DejaVuSans-65"/>
     </g>
    </g>
   </g>
   <g id="matplotlib.axis_4">
    <g id="ytick_9">
     <g id="line2d_60">
      <g>
       <use style="stroke:#000000;stroke-width:0.8;" x="860.823529" xlink:href="#m4ff9dd344d" y="554.239169"/>
      </g>
     </g>
     <g id="text_22">
      <!-- 10 -->
      <g transform="translate(841.098529 558.038388)scale(0.1 -0.1)">
       <use xlink:href="#DejaVuSans-31"/>
       <use x="63.623047" xlink:href="#DejaVuSans-30"/>
      </g>
     </g>
    </g>
    <g id="ytick_10">
     <g id="line2d_61">
      <g>
       <use style="stroke:#000000;stroke-width:0.8;" x="860.823529" xlink:href="#m4ff9dd344d" y="440.201127"/>
      </g>
     </g>
     <g id="text_23">
      <!-- 20 -->
      <g transform="translate(841.098529 444.000346)scale(0.1 -0.1)">
       <use xlink:href="#DejaVuSans-32"/>
       <use x="63.623047" xlink:href="#DejaVuSans-30"/>
      </g>
     </g>
    </g>
    <g id="ytick_11">
     <g id="line2d_62">
      <g>
       <use style="stroke:#000000;stroke-width:0.8;" x="860.823529" xlink:href="#m4ff9dd344d" y="326.163085"/>
      </g>
     </g>
     <g id="text_24">
      <!-- 30 -->
      <g transform="translate(841.098529 329.962304)scale(0.1 -0.1)">
       <use xlink:href="#DejaVuSans-33"/>
       <use x="63.623047" xlink:href="#DejaVuSans-30"/>
      </g>
     </g>
    </g>
    <g id="ytick_12">
     <g id="line2d_63">
      <g>
       <use style="stroke:#000000;stroke-width:0.8;" x="860.823529" xlink:href="#m4ff9dd344d" y="212.125043"/>
      </g>
     </g>
     <g id="text_25">
      <!-- 40 -->
      <g transform="translate(841.098529 215.924262)scale(0.1 -0.1)">
       <use xlink:href="#DejaVuSans-34"/>
       <use x="63.623047" xlink:href="#DejaVuSans-30"/>
      </g>
     </g>
    </g>
    <g id="ytick_13">
     <g id="line2d_64">
      <g>
       <use style="stroke:#000000;stroke-width:0.8;" x="860.823529" xlink:href="#m4ff9dd344d" y="98.087001"/>
      </g>
     </g>
     <g id="text_26">
      <!-- 50 -->
      <g transform="translate(841.098529 101.88622)scale(0.1 -0.1)">
       <use xlink:href="#DejaVuSans-35"/>
       <use x="63.623047" xlink:href="#DejaVuSans-30"/>
      </g>
     </g>
    </g>
    <g id="text_27">
     <!-- RMSE -->
     <g transform="translate(834.186967 377.970625)rotate(-90)scale(0.14 -0.14)">
      <use xlink:href="#DejaVuSans-52"/>
      <use x="69.482422" xlink:href="#DejaVuSans-4d"/>
      <use x="155.761719" xlink:href="#DejaVuSans-53"/>
      <use x="219.238281" xlink:href="#DejaVuSans-45"/>
     </g>
    </g>
   </g>
   <g id="line2d_65">
    <path clip-path="url(#p975b49c3d1)" d="M 883.203209 583.805876 
L 898.462986 507.564598 
L 913.800833 481.612072 
L 929.490176 532.844489 
L 944.558856 499.684067 
L 960.277094 551.862867 
L 975.69837 583.726052 
L 990.948524 481.61476 
L 1006.615949 522.988549 
L 1021.987668 546.228246 
L 1037.46832 584.877622 
L 1052.87578 560.150582 
L 1068.365797 605.290909 
L 1083.842899 603.200056 
L 1099.212252 505.406918 
L 1114.659951 549.181852 
L 1130.077758 580.710655 
L 1145.562642 605.14904 
L 1161.001581 541.537296 
L 1176.437065 526.091343 
L 1191.887358 586.206185 
L 1207.315214 528.666198 
L 1222.746783 589.859781 
L 1238.175586 569.548321 
L 1253.61788 541.233653 
L 1269.053932 506.057603 
L 1284.491355 576.236991 
L 1299.915531 587.60444 
L 1315.3548 545.948829 
L 1330.796791 542.26096 
" style="fill:none;stroke:#1f77b4;stroke-linecap:square;stroke-width:1.5;"/>
   </g>
   <g id="line2d_66">
    <path clip-path="url(#p975b49c3d1)" d="M 883.203209 115.910768 
L 898.462986 114.774887 
L 913.800833 111.109091 
L 929.490176 227.306153 
L 944.558856 205.167164 
L 960.277094 211.479756 
L 975.69837 373.160242 
L 990.948524 376.209594 
L 1006.615949 379.906475 
L 1021.987668 336.415199 
L 1037.46832 346.796642 
L 1052.87578 467.782032 
L 1068.365797 418.249131 
L 1083.842899 472.534031 
L 1099.212252 452.559376 
L 1114.659951 489.690753 
L 1130.077758 490.663518 
L 1145.562642 480.347897 
L 1161.001581 501.721302 
L 1176.437065 515.054216 
L 1191.887358 456.288846 
L 1207.315214 498.823386 
L 1222.746783 516.433516 
L 1238.175586 519.998019 
L 1253.61788 495.034199 
L 1269.053932 509.908887 
L 1284.491355 513.699785 
L 1299.915531 513.635146 
L 1315.3548 530.0162 
L 1330.796791 535.944099 
" style="fill:none;stroke:#ff7f0e;stroke-linecap:square;stroke-width:1.5;"/>
   </g>
   <g id="line2d_67">
    <path clip-path="url(#p975b49c3d1)" d="M 883.203209 527.654506 
L 898.462986 448.272089 
L 913.800833 449.937384 
L 929.490176 479.949308 
L 944.558856 471.580838 
L 960.277094 509.639647 
L 975.69837 490.077065 
L 990.948524 468.830113 
L 1006.615949 372.323945 
L 1021.987668 460.510139 
L 1037.46832 465.117694 
L 1052.87578 526.962357 
L 1068.365797 451.496776 
L 1083.842899 505.716857 
L 1099.212252 440.815901 
L 1114.659951 500.253395 
L 1130.077758 441.125064 
L 1145.562642 521.801693 
L 1161.001581 470.363654 
L 1176.437065 544.979629 
L 1191.887358 517.084192 
L 1207.315214 431.286538 
L 1222.746783 519.119941 
L 1238.175586 554.896025 
L 1253.61788 558.834399 
L 1269.053932 551.04656 
L 1284.491355 426.300315 
L 1299.915531 540.213182 
L 1315.3548 550.726174 
L 1330.796791 467.197666 
" style="fill:none;stroke:#2ca02c;stroke-linecap:square;stroke-width:1.5;"/>
   </g>
   <g id="patch_9">
    <path d="M 860.823529 630 
L 860.823529 86.4 
" style="fill:none;stroke:#000000;stroke-linecap:square;stroke-linejoin:miter;stroke-width:0.8;"/>
   </g>
   <g id="patch_10">
    <path d="M 1353.176471 630 
L 1353.176471 86.4 
" style="fill:none;stroke:#000000;stroke-linecap:square;stroke-linejoin:miter;stroke-width:0.8;"/>
   </g>
   <g id="patch_11">
    <path d="M 860.823529 630 
L 1353.176471 630 
" style="fill:none;stroke:#000000;stroke-linecap:square;stroke-linejoin:miter;stroke-width:0.8;"/>
   </g>
   <g id="patch_12">
    <path d="M 860.823529 86.4 
L 1353.176471 86.4 
" style="fill:none;stroke:#000000;stroke-linecap:square;stroke-linejoin:miter;stroke-width:0.8;"/>
   </g>
   <g id="text_28">
    <!-- Component covariances -->
    <g transform="translate(1022.219062 80.4)scale(0.14 -0.14)">
     <defs>
      <path d="M 191 3500 
L 800 3500 
L 1894 563 
L 2988 3500 
L 3597 3500 
L 2284 0 
L 1503 0 
L 191 3500 
z
" id="DejaVuSans-76" transform="scale(0.015625)"/>
     </defs>
     <use xlink:href="#DejaVuSans-43"/>
     <use x="69.824219" xlink:href="#DejaVuSans-6f"/>
     <use x="131.005859" xlink:href="#DejaVuSans-6d"/>
     <use x="228.417969" xlink:href="#DejaVuSans-70"/>
     <use x="291.894531" xlink:href="#DejaVuSans-6f"/>
     <use x="353.076172" xlink:href="#DejaVuSans-6e"/>
     <use x="416.455078" xlink:href="#DejaVuSans-65"/>
     <use x="477.978516" xlink:href="#DejaVuSans-6e"/>
     <use x="541.357422" xlink:href="#DejaVuSans-74"/>
     <use x="580.566406" xlink:href="#DejaVuSans-20"/>
     <use x="612.353516" xlink:href="#DejaVuSans-63"/>
     <use x="667.333984" xlink:href="#DejaVuSans-6f"/>
     <use x="728.515625" xlink:href="#DejaVuSans-76"/>
     <use x="787.695312" xlink:href="#DejaVuSans-61"/>
     <use x="848.974609" xlink:href="#DejaVuSans-72"/>
     <use x="890.087891" xlink:href="#DejaVuSans-69"/>
     <use x="917.871094" xlink:href="#DejaVuSans-61"/>
     <use x="979.150391" xlink:href="#DejaVuSans-6e"/>
     <use x="1042.529297" xlink:href="#DejaVuSans-63"/>
     <use x="1097.509766" xlink:href="#DejaVuSans-65"/>
     <use x="1159.033203" xlink:href="#DejaVuSans-73"/>
    </g>
   </g>
   <g id="legend_2">
    <g id="patch_13">
     <path d="M 1223.328658 159.248125 
L 1343.376471 159.248125 
Q 1346.176471 159.248125 1346.176471 156.448125 
L 1346.176471 96.2 
Q 1346.176471 93.4 1343.376471 93.4 
L 1223.328658 93.4 
Q 1220.528658 93.4 1220.528658 96.2 
L 1220.528658 156.448125 
Q 1220.528658 159.248125 1223.328658 159.248125 
z
" style="fill:#ffffff;opacity:0.8;stroke:#cccccc;stroke-linejoin:miter;"/>
    </g>
    <g id="line2d_68">
     <path d="M 1226.128658 104.737812 
L 1254.128658 104.737812 
" style="fill:none;stroke:#1f77b4;stroke-linecap:square;stroke-width:1.5;"/>
    </g>
    <g id="line2d_69"/>
    <g id="text_29">
     <!-- Non-DP -->
     <g transform="translate(1265.328658 109.637812)scale(0.14 -0.14)">
      <use xlink:href="#DejaVuSans-4e"/>
      <use x="74.804688" xlink:href="#DejaVuSans-6f"/>
      <use x="135.986328" xlink:href="#DejaVuSans-6e"/>
      <use x="199.365234" xlink:href="#DejaVuSans-2d"/>
      <use x="235.449219" xlink:href="#DejaVuSans-44"/>
      <use x="312.451172" xlink:href="#DejaVuSans-50"/>
     </g>
    </g>
    <g id="line2d_70">
     <path d="M 1226.128658 125.287187 
L 1254.128658 125.287187 
" style="fill:none;stroke:#ff7f0e;stroke-linecap:square;stroke-width:1.5;"/>
    </g>
    <g id="line2d_71"/>
    <g id="text_30">
     <!-- Central-DP -->
     <g transform="translate(1265.328658 130.187187)scale(0.14 -0.14)">
      <use xlink:href="#DejaVuSans-43"/>
      <use x="69.824219" xlink:href="#DejaVuSans-65"/>
      <use x="131.347656" xlink:href="#DejaVuSans-6e"/>
      <use x="194.726562" xlink:href="#DejaVuSans-74"/>
      <use x="233.935547" xlink:href="#DejaVuSans-72"/>
      <use x="275.048828" xlink:href="#DejaVuSans-61"/>
      <use x="336.328125" xlink:href="#DejaVuSans-6c"/>
      <use x="364.111328" xlink:href="#DejaVuSans-2d"/>
      <use x="400.195312" xlink:href="#DejaVuSans-44"/>
      <use x="477.197266" xlink:href="#DejaVuSans-50"/>
     </g>
    </g>
    <g id="line2d_72">
     <path d="M 1226.128658 145.836562 
L 1254.128658 145.836562 
" style="fill:none;stroke:#2ca02c;stroke-linecap:square;stroke-width:1.5;"/>
    </g>
    <g id="line2d_73"/>
    <g id="text_31">
     <!-- Local-DP -->
     <g transform="translate(1265.328658 150.736562)scale(0.14 -0.14)">
      <use xlink:href="#DejaVuSans-4c"/>
      <use x="53.962891" xlink:href="#DejaVuSans-6f"/>
      <use x="115.144531" xlink:href="#DejaVuSans-63"/>
      <use x="170.125" xlink:href="#DejaVuSans-61"/>
      <use x="231.404297" xlink:href="#DejaVuSans-6c"/>
      <use x="259.1875" xlink:href="#DejaVuSans-2d"/>
      <use x="295.271484" xlink:href="#DejaVuSans-44"/>
      <use x="372.273438" xlink:href="#DejaVuSans-50"/>
     </g>
    </g>
   </g>
  </g>
  <g id="axes_3">
   <g id="patch_14">
    <path d="M 1451.647059 630 
L 1944 630 
L 1944 86.4 
L 1451.647059 86.4 
z
" style="fill:#ffffff;"/>
   </g>
   <g id="matplotlib.axis_5">
    <g id="xtick_43">
     <g id="line2d_74">
      <g>
       <use style="stroke:#000000;stroke-width:0.8;" x="1474.026738" xlink:href="#m55ec8ec78c" y="630"/>
      </g>
     </g>
     <g id="text_32">
      <!-- $\mathdefault{10^{2}}$ -->
      <g transform="translate(1465.226738 644.598438)scale(0.1 -0.1)">
       <use transform="translate(0 0.765625)" xlink:href="#DejaVuSans-31"/>
       <use transform="translate(63.623047 0.765625)" xlink:href="#DejaVuSans-30"/>
       <use transform="translate(128.203125 39.046875)scale(0.7)" xlink:href="#DejaVuSans-32"/>
      </g>
     </g>
    </g>
    <g id="xtick_44">
     <g id="line2d_75">
      <g>
       <use style="stroke:#000000;stroke-width:0.8;" x="1697.823529" xlink:href="#m55ec8ec78c" y="630"/>
      </g>
     </g>
     <g id="text_33">
      <!-- $\mathdefault{10^{3}}$ -->
      <g transform="translate(1689.023529 644.598438)scale(0.1 -0.1)">
       <use transform="translate(0 0.765625)" xlink:href="#DejaVuSans-31"/>
       <use transform="translate(63.623047 0.765625)" xlink:href="#DejaVuSans-30"/>
       <use transform="translate(128.203125 39.046875)scale(0.7)" xlink:href="#DejaVuSans-33"/>
      </g>
     </g>
    </g>
    <g id="xtick_45">
     <g id="line2d_76">
      <g>
       <use style="stroke:#000000;stroke-width:0.8;" x="1921.620321" xlink:href="#m55ec8ec78c" y="630"/>
      </g>
     </g>
     <g id="text_34">
      <!-- $\mathdefault{10^{4}}$ -->
      <g transform="translate(1912.820321 644.598438)scale(0.1 -0.1)">
       <use transform="translate(0 0.684375)" xlink:href="#DejaVuSans-31"/>
       <use transform="translate(63.623047 0.684375)" xlink:href="#DejaVuSans-30"/>
       <use transform="translate(128.203125 38.965625)scale(0.7)" xlink:href="#DejaVuSans-34"/>
      </g>
     </g>
    </g>
    <g id="xtick_46">
     <g id="line2d_77">
      <g>
       <use style="stroke:#000000;stroke-width:0.6;" x="1452.338588" xlink:href="#md94293f4b9" y="630"/>
      </g>
     </g>
    </g>
    <g id="xtick_47">
     <g id="line2d_78">
      <g>
       <use style="stroke:#000000;stroke-width:0.6;" x="1463.786358" xlink:href="#md94293f4b9" y="630"/>
      </g>
     </g>
    </g>
    <g id="xtick_48">
     <g id="line2d_79">
      <g>
       <use style="stroke:#000000;stroke-width:0.6;" x="1541.396285" xlink:href="#md94293f4b9" y="630"/>
      </g>
     </g>
    </g>
    <g id="xtick_49">
     <g id="line2d_80">
      <g>
       <use style="stroke:#000000;stroke-width:0.6;" x="1580.804944" xlink:href="#md94293f4b9" y="630"/>
      </g>
     </g>
    </g>
    <g id="xtick_50">
     <g id="line2d_81">
      <g>
       <use style="stroke:#000000;stroke-width:0.6;" x="1608.765832" xlink:href="#md94293f4b9" y="630"/>
      </g>
     </g>
    </g>
    <g id="xtick_51">
     <g id="line2d_82">
      <g>
       <use style="stroke:#000000;stroke-width:0.6;" x="1630.453982" xlink:href="#md94293f4b9" y="630"/>
      </g>
     </g>
    </g>
    <g id="xtick_52">
     <g id="line2d_83">
      <g>
       <use style="stroke:#000000;stroke-width:0.6;" x="1648.174491" xlink:href="#md94293f4b9" y="630"/>
      </g>
     </g>
    </g>
    <g id="xtick_53">
     <g id="line2d_84">
      <g>
       <use style="stroke:#000000;stroke-width:0.6;" x="1663.156968" xlink:href="#md94293f4b9" y="630"/>
      </g>
     </g>
    </g>
    <g id="xtick_54">
     <g id="line2d_85">
      <g>
       <use style="stroke:#000000;stroke-width:0.6;" x="1676.135379" xlink:href="#md94293f4b9" y="630"/>
      </g>
     </g>
    </g>
    <g id="xtick_55">
     <g id="line2d_86">
      <g>
       <use style="stroke:#000000;stroke-width:0.6;" x="1687.58315" xlink:href="#md94293f4b9" y="630"/>
      </g>
     </g>
    </g>
    <g id="xtick_56">
     <g id="line2d_87">
      <g>
       <use style="stroke:#000000;stroke-width:0.6;" x="1765.193077" xlink:href="#md94293f4b9" y="630"/>
      </g>
     </g>
    </g>
    <g id="xtick_57">
     <g id="line2d_88">
      <g>
       <use style="stroke:#000000;stroke-width:0.6;" x="1804.601735" xlink:href="#md94293f4b9" y="630"/>
      </g>
     </g>
    </g>
    <g id="xtick_58">
     <g id="line2d_89">
      <g>
       <use style="stroke:#000000;stroke-width:0.6;" x="1832.562624" xlink:href="#md94293f4b9" y="630"/>
      </g>
     </g>
    </g>
    <g id="xtick_59">
     <g id="line2d_90">
      <g>
       <use style="stroke:#000000;stroke-width:0.6;" x="1854.250774" xlink:href="#md94293f4b9" y="630"/>
      </g>
     </g>
    </g>
    <g id="xtick_60">
     <g id="line2d_91">
      <g>
       <use style="stroke:#000000;stroke-width:0.6;" x="1871.971283" xlink:href="#md94293f4b9" y="630"/>
      </g>
     </g>
    </g>
    <g id="xtick_61">
     <g id="line2d_92">
      <g>
       <use style="stroke:#000000;stroke-width:0.6;" x="1886.953759" xlink:href="#md94293f4b9" y="630"/>
      </g>
     </g>
    </g>
    <g id="xtick_62">
     <g id="line2d_93">
      <g>
       <use style="stroke:#000000;stroke-width:0.6;" x="1899.932171" xlink:href="#md94293f4b9" y="630"/>
      </g>
     </g>
    </g>
    <g id="xtick_63">
     <g id="line2d_94">
      <g>
       <use style="stroke:#000000;stroke-width:0.6;" x="1911.379941" xlink:href="#md94293f4b9" y="630"/>
      </g>
     </g>
    </g>
    <g id="text_35">
     <!-- Sample size -->
     <g transform="translate(1655.778686 661.315938)scale(0.14 -0.14)">
      <use xlink:href="#DejaVuSans-53"/>
      <use x="63.476562" xlink:href="#DejaVuSans-61"/>
      <use x="124.755859" xlink:href="#DejaVuSans-6d"/>
      <use x="222.167969" xlink:href="#DejaVuSans-70"/>
      <use x="285.644531" xlink:href="#DejaVuSans-6c"/>
      <use x="313.427734" xlink:href="#DejaVuSans-65"/>
      <use x="374.951172" xlink:href="#DejaVuSans-20"/>
      <use x="406.738281" xlink:href="#DejaVuSans-73"/>
      <use x="458.837891" xlink:href="#DejaVuSans-69"/>
      <use x="486.621094" xlink:href="#DejaVuSans-7a"/>
      <use x="539.111328" xlink:href="#DejaVuSans-65"/>
     </g>
    </g>
   </g>
   <g id="matplotlib.axis_6">
    <g id="ytick_14">
     <g id="line2d_95">
      <g>
       <use style="stroke:#000000;stroke-width:0.8;" x="1451.647059" xlink:href="#m4ff9dd344d" y="578.938885"/>
      </g>
     </g>
     <g id="text_36">
      <!-- 0.1 -->
      <g transform="translate(1428.743934 582.738103)scale(0.1 -0.1)">
       <defs>
        <path d="M 684 794 
L 1344 794 
L 1344 0 
L 684 0 
L 684 794 
z
" id="DejaVuSans-2e" transform="scale(0.015625)"/>
       </defs>
       <use xlink:href="#DejaVuSans-30"/>
       <use x="63.623047" xlink:href="#DejaVuSans-2e"/>
       <use x="95.410156" xlink:href="#DejaVuSans-31"/>
      </g>
     </g>
    </g>
    <g id="ytick_15">
     <g id="line2d_96">
      <g>
       <use style="stroke:#000000;stroke-width:0.8;" x="1451.647059" xlink:href="#m4ff9dd344d" y="515.380768"/>
      </g>
     </g>
     <g id="text_37">
      <!-- 0.2 -->
      <g transform="translate(1428.743934 519.179987)scale(0.1 -0.1)">
       <use xlink:href="#DejaVuSans-30"/>
       <use x="63.623047" xlink:href="#DejaVuSans-2e"/>
       <use x="95.410156" xlink:href="#DejaVuSans-32"/>
      </g>
     </g>
    </g>
    <g id="ytick_16">
     <g id="line2d_97">
      <g>
       <use style="stroke:#000000;stroke-width:0.8;" x="1451.647059" xlink:href="#m4ff9dd344d" y="451.822652"/>
      </g>
     </g>
     <g id="text_38">
      <!-- 0.3 -->
      <g transform="translate(1428.743934 455.621871)scale(0.1 -0.1)">
       <use xlink:href="#DejaVuSans-30"/>
       <use x="63.623047" xlink:href="#DejaVuSans-2e"/>
       <use x="95.410156" xlink:href="#DejaVuSans-33"/>
      </g>
     </g>
    </g>
    <g id="ytick_17">
     <g id="line2d_98">
      <g>
       <use style="stroke:#000000;stroke-width:0.8;" x="1451.647059" xlink:href="#m4ff9dd344d" y="388.264536"/>
      </g>
     </g>
     <g id="text_39">
      <!-- 0.4 -->
      <g transform="translate(1428.743934 392.063754)scale(0.1 -0.1)">
       <use xlink:href="#DejaVuSans-30"/>
       <use x="63.623047" xlink:href="#DejaVuSans-2e"/>
       <use x="95.410156" xlink:href="#DejaVuSans-34"/>
      </g>
     </g>
    </g>
    <g id="ytick_18">
     <g id="line2d_99">
      <g>
       <use style="stroke:#000000;stroke-width:0.8;" x="1451.647059" xlink:href="#m4ff9dd344d" y="324.706419"/>
      </g>
     </g>
     <g id="text_40">
      <!-- 0.5 -->
      <g transform="translate(1428.743934 328.505638)scale(0.1 -0.1)">
       <use xlink:href="#DejaVuSans-30"/>
       <use x="63.623047" xlink:href="#DejaVuSans-2e"/>
       <use x="95.410156" xlink:href="#DejaVuSans-35"/>
      </g>
     </g>
    </g>
    <g id="ytick_19">
     <g id="line2d_100">
      <g>
       <use style="stroke:#000000;stroke-width:0.8;" x="1451.647059" xlink:href="#m4ff9dd344d" y="261.148303"/>
      </g>
     </g>
     <g id="text_41">
      <!-- 0.6 -->
      <g transform="translate(1428.743934 264.947522)scale(0.1 -0.1)">
       <use xlink:href="#DejaVuSans-30"/>
       <use x="63.623047" xlink:href="#DejaVuSans-2e"/>
       <use x="95.410156" xlink:href="#DejaVuSans-36"/>
      </g>
     </g>
    </g>
    <g id="ytick_20">
     <g id="line2d_101">
      <g>
       <use style="stroke:#000000;stroke-width:0.8;" x="1451.647059" xlink:href="#m4ff9dd344d" y="197.590187"/>
      </g>
     </g>
     <g id="text_42">
      <!-- 0.7 -->
      <g transform="translate(1428.743934 201.389405)scale(0.1 -0.1)">
       <use xlink:href="#DejaVuSans-30"/>
       <use x="63.623047" xlink:href="#DejaVuSans-2e"/>
       <use x="95.410156" xlink:href="#DejaVuSans-37"/>
      </g>
     </g>
    </g>
    <g id="ytick_21">
     <g id="line2d_102">
      <g>
       <use style="stroke:#000000;stroke-width:0.8;" x="1451.647059" xlink:href="#m4ff9dd344d" y="134.03207"/>
      </g>
     </g>
     <g id="text_43">
      <!-- 0.8 -->
      <g transform="translate(1428.743934 137.831289)scale(0.1 -0.1)">
       <use xlink:href="#DejaVuSans-30"/>
       <use x="63.623047" xlink:href="#DejaVuSans-2e"/>
       <use x="95.410156" xlink:href="#DejaVuSans-38"/>
      </g>
     </g>
    </g>
    <g id="text_44">
     <!-- RMSE -->
     <g transform="translate(1421.832371 377.970625)rotate(-90)scale(0.14 -0.14)">
      <use xlink:href="#DejaVuSans-52"/>
      <use x="69.482422" xlink:href="#DejaVuSans-4d"/>
      <use x="155.761719" xlink:href="#DejaVuSans-53"/>
      <use x="219.238281" xlink:href="#DejaVuSans-45"/>
     </g>
    </g>
   </g>
   <g id="line2d_103">
    <path clip-path="url(#p5a56eb98f6)" d="M 1474.026738 587.998829 
L 1489.286515 590.8146 
L 1504.624362 583.522051 
L 1520.313705 560.013802 
L 1535.382385 541.27216 
L 1551.100624 568.993532 
L 1566.521899 587.51876 
L 1581.772053 548.848609 
L 1597.439478 559.854049 
L 1612.811197 575.655844 
L 1628.291849 588.766168 
L 1643.69931 575.982387 
L 1659.189327 601.365301 
L 1674.666429 602.41999 
L 1690.035782 569.603516 
L 1705.483481 569.229607 
L 1720.901287 591.144831 
L 1736.386171 605.290909 
L 1751.82511 560.876341 
L 1767.260594 571.873192 
L 1782.710887 590.826369 
L 1798.138743 589.96891 
L 1813.570312 591.903142 
L 1828.999115 581.2773 
L 1844.441409 562.897936 
L 1859.877461 561.072135 
L 1875.314885 580.284876 
L 1890.739061 591.70332 
L 1906.178329 561.485229 
L 1921.620321 561.582918 
" style="fill:none;stroke:#1f77b4;stroke-linecap:square;stroke-width:1.5;"/>
   </g>
   <g id="line2d_104">
    <path clip-path="url(#p5a56eb98f6)" d="M 1474.026738 111.109091 
L 1489.286515 383.394268 
L 1504.624362 420.914298 
L 1520.313705 535.418799 
L 1535.382385 507.621338 
L 1551.100624 491.259684 
L 1566.521899 486.672671 
L 1581.772053 484.109806 
L 1597.439478 521.107693 
L 1612.811197 528.957788 
L 1628.291849 495.609623 
L 1643.69931 545.517029 
L 1659.189327 503.687054 
L 1674.666429 539.157204 
L 1690.035782 525.502081 
L 1705.483481 548.370503 
L 1720.901287 537.923719 
L 1736.386171 530.715856 
L 1751.82511 535.128804 
L 1767.260594 546.002691 
L 1782.710887 518.696272 
L 1798.138743 551.170495 
L 1813.570312 547.359076 
L 1828.999115 560.965794 
L 1844.441409 548.644709 
L 1859.877461 540.931398 
L 1875.314885 553.06387 
L 1890.739061 539.583767 
L 1906.178329 569.03559 
L 1921.620321 558.596729 
" style="fill:none;stroke:#ff7f0e;stroke-linecap:square;stroke-width:1.5;"/>
   </g>
   <g id="line2d_105">
    <path clip-path="url(#p5a56eb98f6)" d="M 1474.026738 544.957587 
L 1489.286515 535.331988 
L 1504.624362 546.536298 
L 1520.313705 544.783319 
L 1535.382385 545.739239 
L 1551.100624 547.12326 
L 1566.521899 545.495996 
L 1581.772053 533.731007 
L 1597.439478 541.244592 
L 1612.811197 567.925575 
L 1628.291849 545.430279 
L 1643.69931 567.915048 
L 1659.189327 530.420087 
L 1674.666429 564.92119 
L 1690.035782 550.344108 
L 1705.483481 594.366284 
L 1720.901287 557.459574 
L 1736.386171 586.623125 
L 1751.82511 559.245592 
L 1767.260594 599.494452 
L 1782.710887 585.767752 
L 1798.138743 544.997722 
L 1813.570312 585.276614 
L 1828.999115 603.066317 
L 1844.441409 597.404559 
L 1859.877461 596.460859 
L 1875.314885 551.531761 
L 1890.739061 592.524073 
L 1906.178329 584.933255 
L 1921.620321 591.266137 
" style="fill:none;stroke:#2ca02c;stroke-linecap:square;stroke-width:1.5;"/>
   </g>
   <g id="patch_15">
    <path d="M 1451.647059 630 
L 1451.647059 86.4 
" style="fill:none;stroke:#000000;stroke-linecap:square;stroke-linejoin:miter;stroke-width:0.8;"/>
   </g>
   <g id="patch_16">
    <path d="M 1944 630 
L 1944 86.4 
" style="fill:none;stroke:#000000;stroke-linecap:square;stroke-linejoin:miter;stroke-width:0.8;"/>
   </g>
   <g id="patch_17">
    <path d="M 1451.647059 630 
L 1944 630 
" style="fill:none;stroke:#000000;stroke-linecap:square;stroke-linejoin:miter;stroke-width:0.8;"/>
   </g>
   <g id="patch_18">
    <path d="M 1451.647059 86.4 
L 1944 86.4 
" style="fill:none;stroke:#000000;stroke-linecap:square;stroke-linejoin:miter;stroke-width:0.8;"/>
   </g>
   <g id="text_45">
    <!-- Component weights -->
    <g transform="translate(1627.710873 80.4)scale(0.14 -0.14)">
     <defs>
      <path d="M 269 3500 
L 844 3500 
L 1563 769 
L 2278 3500 
L 2956 3500 
L 3675 769 
L 4391 3500 
L 4966 3500 
L 4050 0 
L 3372 0 
L 2619 2869 
L 1863 0 
L 1184 0 
L 269 3500 
z
" id="DejaVuSans-77" transform="scale(0.015625)"/>
      <path d="M 2906 1791 
Q 2906 2416 2648 2759 
Q 2391 3103 1925 3103 
Q 1463 3103 1205 2759 
Q 947 2416 947 1791 
Q 947 1169 1205 825 
Q 1463 481 1925 481 
Q 2391 481 2648 825 
Q 2906 1169 2906 1791 
z
M 3481 434 
Q 3481 -459 3084 -895 
Q 2688 -1331 1869 -1331 
Q 1566 -1331 1297 -1286 
Q 1028 -1241 775 -1147 
L 775 -588 
Q 1028 -725 1275 -790 
Q 1522 -856 1778 -856 
Q 2344 -856 2625 -561 
Q 2906 -266 2906 331 
L 2906 616 
Q 2728 306 2450 153 
Q 2172 0 1784 0 
Q 1141 0 747 490 
Q 353 981 353 1791 
Q 353 2603 747 3093 
Q 1141 3584 1784 3584 
Q 2172 3584 2450 3431 
Q 2728 3278 2906 2969 
L 2906 3500 
L 3481 3500 
L 3481 434 
z
" id="DejaVuSans-67" transform="scale(0.015625)"/>
      <path d="M 3513 2113 
L 3513 0 
L 2938 0 
L 2938 2094 
Q 2938 2591 2744 2837 
Q 2550 3084 2163 3084 
Q 1697 3084 1428 2787 
Q 1159 2491 1159 1978 
L 1159 0 
L 581 0 
L 581 4863 
L 1159 4863 
L 1159 2956 
Q 1366 3272 1645 3428 
Q 1925 3584 2291 3584 
Q 2894 3584 3203 3211 
Q 3513 2838 3513 2113 
z
" id="DejaVuSans-68" transform="scale(0.015625)"/>
     </defs>
     <use xlink:href="#DejaVuSans-43"/>
     <use x="69.824219" xlink:href="#DejaVuSans-6f"/>
     <use x="131.005859" xlink:href="#DejaVuSans-6d"/>
     <use x="228.417969" xlink:href="#DejaVuSans-70"/>
     <use x="291.894531" xlink:href="#DejaVuSans-6f"/>
     <use x="353.076172" xlink:href="#DejaVuSans-6e"/>
     <use x="416.455078" xlink:href="#DejaVuSans-65"/>
     <use x="477.978516" xlink:href="#DejaVuSans-6e"/>
     <use x="541.357422" xlink:href="#DejaVuSans-74"/>
     <use x="580.566406" xlink:href="#DejaVuSans-20"/>
     <use x="612.353516" xlink:href="#DejaVuSans-77"/>
     <use x="694.140625" xlink:href="#DejaVuSans-65"/>
     <use x="755.664062" xlink:href="#DejaVuSans-69"/>
     <use x="783.447266" xlink:href="#DejaVuSans-67"/>
     <use x="846.923828" xlink:href="#DejaVuSans-68"/>
     <use x="910.302734" xlink:href="#DejaVuSans-74"/>
     <use x="949.511719" xlink:href="#DejaVuSans-73"/>
    </g>
   </g>
   <g id="legend_3">
    <g id="patch_19">
     <path d="M 1814.152188 159.248125 
L 1934.2 159.248125 
Q 1937 159.248125 1937 156.448125 
L 1937 96.2 
Q 1937 93.4 1934.2 93.4 
L 1814.152188 93.4 
Q 1811.352188 93.4 1811.352188 96.2 
L 1811.352188 156.448125 
Q 1811.352188 159.248125 1814.152188 159.248125 
z
" style="fill:#ffffff;opacity:0.8;stroke:#cccccc;stroke-linejoin:miter;"/>
    </g>
    <g id="line2d_106">
     <path d="M 1816.952188 104.737812 
L 1844.952188 104.737812 
" style="fill:none;stroke:#1f77b4;stroke-linecap:square;stroke-width:1.5;"/>
    </g>
    <g id="line2d_107"/>
    <g id="text_46">
     <!-- Non-DP -->
     <g transform="translate(1856.152188 109.637812)scale(0.14 -0.14)">
      <use xlink:href="#DejaVuSans-4e"/>
      <use x="74.804688" xlink:href="#DejaVuSans-6f"/>
      <use x="135.986328" xlink:href="#DejaVuSans-6e"/>
      <use x="199.365234" xlink:href="#DejaVuSans-2d"/>
      <use x="235.449219" xlink:href="#DejaVuSans-44"/>
      <use x="312.451172" xlink:href="#DejaVuSans-50"/>
     </g>
    </g>
    <g id="line2d_108">
     <path d="M 1816.952188 125.287187 
L 1844.952188 125.287187 
" style="fill:none;stroke:#ff7f0e;stroke-linecap:square;stroke-width:1.5;"/>
    </g>
    <g id="line2d_109"/>
    <g id="text_47">
     <!-- Central-DP -->
     <g transform="translate(1856.152188 130.187187)scale(0.14 -0.14)">
      <use xlink:href="#DejaVuSans-43"/>
      <use x="69.824219" xlink:href="#DejaVuSans-65"/>
      <use x="131.347656" xlink:href="#DejaVuSans-6e"/>
      <use x="194.726562" xlink:href="#DejaVuSans-74"/>
      <use x="233.935547" xlink:href="#DejaVuSans-72"/>
      <use x="275.048828" xlink:href="#DejaVuSans-61"/>
      <use x="336.328125" xlink:href="#DejaVuSans-6c"/>
      <use x="364.111328" xlink:href="#DejaVuSans-2d"/>
      <use x="400.195312" xlink:href="#DejaVuSans-44"/>
      <use x="477.197266" xlink:href="#DejaVuSans-50"/>
     </g>
    </g>
    <g id="line2d_110">
     <path d="M 1816.952188 145.836562 
L 1844.952188 145.836562 
" style="fill:none;stroke:#2ca02c;stroke-linecap:square;stroke-width:1.5;"/>
    </g>
    <g id="line2d_111"/>
    <g id="text_48">
     <!-- Local-DP -->
     <g transform="translate(1856.152188 150.736562)scale(0.14 -0.14)">
      <use xlink:href="#DejaVuSans-4c"/>
      <use x="53.962891" xlink:href="#DejaVuSans-6f"/>
      <use x="115.144531" xlink:href="#DejaVuSans-63"/>
      <use x="170.125" xlink:href="#DejaVuSans-61"/>
      <use x="231.404297" xlink:href="#DejaVuSans-6c"/>
      <use x="259.1875" xlink:href="#DejaVuSans-2d"/>
      <use x="295.271484" xlink:href="#DejaVuSans-44"/>
      <use x="372.273438" xlink:href="#DejaVuSans-50"/>
     </g>
    </g>
   </g>
  </g>
  <g id="text_49">
   <!-- Average RMSE across components -->
   <g transform="translate(941.85875 26.5575)scale(0.16 -0.16)">
    <defs>
     <path d="M 2188 4044 
L 1331 1722 
L 3047 1722 
L 2188 4044 
z
M 1831 4666 
L 2547 4666 
L 4325 0 
L 3669 0 
L 3244 1197 
L 1141 1197 
L 716 0 
L 50 0 
L 1831 4666 
z
" id="DejaVuSans-41" transform="scale(0.015625)"/>
    </defs>
    <use xlink:href="#DejaVuSans-41"/>
    <use x="62.533203" xlink:href="#DejaVuSans-76"/>
    <use x="121.712891" xlink:href="#DejaVuSans-65"/>
    <use x="183.236328" xlink:href="#DejaVuSans-72"/>
    <use x="224.349609" xlink:href="#DejaVuSans-61"/>
    <use x="285.628906" xlink:href="#DejaVuSans-67"/>
    <use x="349.105469" xlink:href="#DejaVuSans-65"/>
    <use x="410.628906" xlink:href="#DejaVuSans-20"/>
    <use x="442.416016" xlink:href="#DejaVuSans-52"/>
    <use x="511.898438" xlink:href="#DejaVuSans-4d"/>
    <use x="598.177734" xlink:href="#DejaVuSans-53"/>
    <use x="661.654297" xlink:href="#DejaVuSans-45"/>
    <use x="724.837891" xlink:href="#DejaVuSans-20"/>
    <use x="756.625" xlink:href="#DejaVuSans-61"/>
    <use x="817.904297" xlink:href="#DejaVuSans-63"/>
    <use x="872.884766" xlink:href="#DejaVuSans-72"/>
    <use x="911.748047" xlink:href="#DejaVuSans-6f"/>
    <use x="972.929688" xlink:href="#DejaVuSans-73"/>
    <use x="1025.029297" xlink:href="#DejaVuSans-73"/>
    <use x="1077.128906" xlink:href="#DejaVuSans-20"/>
    <use x="1108.916016" xlink:href="#DejaVuSans-63"/>
    <use x="1163.896484" xlink:href="#DejaVuSans-6f"/>
    <use x="1225.078125" xlink:href="#DejaVuSans-6d"/>
    <use x="1322.490234" xlink:href="#DejaVuSans-70"/>
    <use x="1385.966797" xlink:href="#DejaVuSans-6f"/>
    <use x="1447.148438" xlink:href="#DejaVuSans-6e"/>
    <use x="1510.527344" xlink:href="#DejaVuSans-65"/>
    <use x="1572.050781" xlink:href="#DejaVuSans-6e"/>
    <use x="1635.429688" xlink:href="#DejaVuSans-74"/>
    <use x="1674.638672" xlink:href="#DejaVuSans-73"/>
   </g>
  </g>
 </g>
 <defs>
  <clipPath id="p58756fb7e9">
   <rect height="543.6" width="492.352941" x="270" y="86.4"/>
  </clipPath>
  <clipPath id="p975b49c3d1">
   <rect height="543.6" width="492.352941" x="860.823529" y="86.4"/>
  </clipPath>
  <clipPath id="p5a56eb98f6">
   <rect height="543.6" width="492.352941" x="1451.647059" y="86.4"/>
  </clipPath>
 </defs>
</svg>
